<?xml version="1.0" encoding="utf-8"?>
<!-- Generator: Adobe Illustrator 24.1.3, SVG Export Plug-In . SVG Version: 6.00 Build 0)  -->
<svg version="1.1" id="Layer_1" xmlns="http://www.w3.org/2000/svg" xmlns:xlink="http://www.w3.org/1999/xlink" x="0px" y="0px"
	 viewBox="0 0 426.1 411.6" style="enable-background:new 0 0 426.1 411.6;" xml:space="preserve">
<style type="text/css">
	.st0{opacity:0.8;fill:url(#SVGID_1_);}
	.st1{fill:#79E2F2;}
	.st2{fill:none;}
	.st3{fill:url(#SVGID_2_);}
	.st4{fill:url(#SVGID_3_);}
	.st5{fill:url(#SVGID_4_);}
	.st6{fill:url(#SVGID_5_);}
	.st7{fill:url(#SVGID_6_);}
	.st8{fill:url(#SVGID_7_);}
	.st9{fill:url(#SVGID_8_);}
	.st10{fill:url(#SVGID_9_);}
	.st11{fill:url(#SVGID_10_);}
	.st12{fill:url(#SVGID_11_);}
	.st13{fill:url(#SVGID_12_);}
	.st14{fill:url(#SVGID_13_);}
	.st15{fill:url(#SVGID_14_);}
	.st16{fill:url(#SVGID_15_);}
	.st17{fill:url(#SVGID_16_);}
	.st18{fill:#00B8D9;}
	.st19{fill:#B3F5FF;}
	.st20{fill:#00BFDF;}
	.st21{fill:url(#SVGID_17_);}
	.st22{fill:url(#SVGID_18_);}
	.st23{fill:url(#SVGID_19_);}
	.st24{fill:url(#SVGID_20_);}
	.st25{fill:url(#SVGID_21_);}
	.st26{fill:url(#SVGID_22_);}
	.st27{fill:url(#SVGID_23_);}
	.st28{fill:url(#SVGID_24_);}
	.st29{fill:url(#SVGID_25_);}
	.st30{fill:url(#SVGID_26_);}
	.st31{clip-path:url(#SVGID_28_);}
	.st32{fill:#DEE1E4;}
	.st33{clip-path:url(#SVGID_30_);}
	.st34{opacity:0.6;fill:#DEE1E4;enable-background:new    ;}
	.st35{fill:url(#SVGID_31_);}
	.st36{clip-path:url(#SVGID_33_);}
	.st37{opacity:0.6;fill:url(#SVGID_34_);enable-background:new    ;}
	.st38{fill:#008DA6;}
	.st39{fill:#344563;}
	.st40{fill:url(#SVGID_35_);}
	.st41{clip-path:url(#SVGID_37_);}
	.st42{fill:url(#SVGID_38_);}
	.st43{fill:#0065FF;}
	.st44{fill:url(#SVGID_39_);}
	.st45{fill:#0049B0;}
	.st46{fill:url(#SVGID_40_);}
	.st47{fill:#D2B494;}
	.st48{fill:url(#SVGID_41_);}
	.st49{fill:url(#SVGID_42_);}
	.st50{fill:#FFE380;}
	.st51{fill:url(#SVGID_43_);}
	.st52{fill:url(#SVGID_44_);}
	.st53{fill:none;stroke:#0065FF;stroke-width:2;stroke-miterlimit:10;}
	.st54{fill:#FFC400;}
	.st55{fill:#FF5630;}
	.st56{fill:url(#SVGID_45_);}
	.st57{fill:#C1C7D0;}
	.st58{fill:url(#SVGID_46_);}
	.st59{fill:#F9F9F8;}
	.st60{opacity:0.4;fill:url(#SVGID_47_);enable-background:new    ;}
	.st61{clip-path:url(#SVGID_49_);}
	.st62{fill:url(#SVGID_50_);}
	.st63{fill:#42526E;}
	.st64{fill:#0052CC;}
	.st65{fill:url(#SVGID_51_);}
	.st66{opacity:0.6;fill:url(#SVGID_52_);enable-background:new    ;}
	.st67{fill:#FF991F;}
	.st68{clip-path:url(#SVGID_54_);}
	.st69{fill:url(#SVGID_55_);}
	.st70{fill:url(#SVGID_56_);}
	.st71{fill:#172B4D;}
	.st72{fill:url(#SVGID_57_);}
	.st73{fill:url(#SVGID_58_);}
	.st74{fill:url(#SVGID_59_);}
	.st75{fill:url(#SVGID_60_);}
	.st76{fill:#FF7452;}
	.st77{fill:#FFAB00;}
	.st78{fill:url(#SVGID_61_);}
	.st79{fill:url(#SVGID_62_);}
	.st80{fill:url(#SVGID_63_);}
	.st81{fill:url(#SVGID_64_);}
	.st82{clip-path:url(#SVGID_66_);}
	.st83{fill:url(#SVGID_67_);}
	.st84{fill:#00A3BF;}
	.st85{fill:url(#SVGID_68_);}
	.st86{fill:url(#SVGID_69_);}
	.st87{fill:url(#SVGID_70_);}
	.st88{fill:url(#SVGID_71_);}
	.st89{fill:url(#SVGID_72_);}
	.st90{fill:url(#SVGID_73_);}
	.st91{fill:url(#SVGID_74_);}
	.st92{fill:#A07F68;}
	.st93{clip-path:url(#SVGID_76_);}
	.st94{fill:url(#SVGID_77_);}
	.st95{fill:#8A715E;}
	.st96{clip-path:url(#SVGID_79_);}
	.st97{fill:#7A869A;}
	.st98{clip-path:url(#SVGID_81_);}
	.st99{fill:#97A0AF;}
	.st100{fill:url(#SVGID_82_);}
	.st101{fill:url(#SVGID_83_);}
	.st102{fill:#4C9AFF;}
	.st103{fill:#AE8E76;}
	.st104{fill:url(#SVGID_84_);}
	.st105{fill:#DE350B;}
	.st106{fill:#72594B;}
	.st107{fill:#253858;}
	.st108{fill:url(#SVGID_85_);}
</style>
<linearGradient id="SVGID_1_" gradientUnits="userSpaceOnUse" x1="82.9032" y1="358.7355" x2="349.8132" y2="358.7355">
	<stop  offset="0" style="stop-color:#8993A4"/>
	<stop  offset="1" style="stop-color:#6C798F;stop-opacity:0"/>
</linearGradient>
<path class="st0" d="M82.9,310.2h266.9l0,0v86.1c0,6.1-9.7,11-21.6,11H104.5c-11.9,0-21.6-4.9-21.6-11V310.2L82.9,310.2z"/>
<path class="st1" d="M426.1,189.1h-76.4V63.2h76.4V189.1z M344.7,63.2h-76.4v125.9h76.4L344.7,63.2z M263.2,63.2h-76.4v125.9h76.4
	L263.2,63.2z M426.1,194h-76.4V320h76.4V194z M344.7,194h-76.4V320h76.4L344.7,194z M263.2,194h-76.4V320h76.4L263.2,194z"/>
<path class="st2" d="M226.3,111.8L226.3,111.8z"/>
<path class="st2" d="M231.1,115.6l-0.5-0.3L231.1,115.6z"/>
<path class="st2" d="M229,114.4l-0.4-0.3L229,114.4z"/>
<path class="st2" d="M227.1,112.8l-0.2-0.2L227.1,112.8z"/>
<path class="st2" d="M228,113.6c-0.1-0.1-0.2-0.2-0.3-0.3C227.8,113.4,227.9,113.5,228,113.6z"/>
<path class="st2" d="M230,115l-0.5-0.3L230,115z"/>
<path class="st2" d="M232.3,116.1l-0.6-0.2L232.3,116.1z"/>
<path class="st2" d="M236.6,116.8c-0.4,0-0.9,0-1.3-0.1C235.8,116.8,236.2,116.8,236.6,116.8z"/>
<path class="st2" d="M234.9,116.7c-0.3,0-0.6-0.1-0.8-0.1C234.4,116.6,234.6,116.7,234.9,116.7z"/>
<path class="st2" d="M233.6,116.5c-0.2-0.1-0.5-0.1-0.7-0.2C233.1,116.4,233.3,116.4,233.6,116.5z"/>
<polygon class="st2" points="290.1,112.5 290.1,116.8 325.1,116.8 325.1,112.5 "/>
<linearGradient id="SVGID_2_" gradientUnits="userSpaceOnUse" x1="288.49" y1="315.3677" x2="288.49" y2="386.5677" gradientTransform="matrix(1 0 0 -1 0 480.3755)">
	<stop  offset="0" style="stop-color:#00B8D9;stop-opacity:0"/>
	<stop  offset="0.52" style="stop-color:#00B8D9"/>
</linearGradient>
<path class="st3" d="M290.1,104.9v-3.3c0-4.2,3.3-7.6,7.4-7.8h-18c4,0.4,7,3.8,7,7.8v4.1c0.8-0.3,1.7-0.6,2.6-0.7
	C289.4,105,289.7,104.9,290.1,104.9z"/>
<linearGradient id="SVGID_3_" gradientUnits="userSpaceOnUse" x1="288.305" y1="315.3677" x2="288.305" y2="386.5677" gradientTransform="matrix(1 0 0 -1 0 480.3755)">
	<stop  offset="0" style="stop-color:#00B8D9;stop-opacity:0"/>
	<stop  offset="0.52" style="stop-color:#00B8D9"/>
</linearGradient>
<rect x="286.5" y="120.2" class="st4" width="3.6" height="44.8"/>
<linearGradient id="SVGID_4_" gradientUnits="userSpaceOnUse" x1="288.305" y1="315.3677" x2="288.305" y2="386.5677" gradientTransform="matrix(1 0 0 -1 0 480.3755)">
	<stop  offset="0" style="stop-color:#00B8D9;stop-opacity:0"/>
	<stop  offset="0.52" style="stop-color:#00B8D9"/>
</linearGradient>
<rect x="286.5" y="112.5" class="st5" width="3.6" height="4.4"/>
<linearGradient id="SVGID_5_" gradientUnits="userSpaceOnUse" x1="249.58" y1="308.1877" x2="249.58" y2="360.2477" gradientTransform="matrix(1 0 0 -1 0 480.3755)">
	<stop  offset="0" style="stop-color:#00B8D9;stop-opacity:0"/>
	<stop  offset="0.52" style="stop-color:#00B8D9"/>
</linearGradient>
<path class="st6" d="M240.4,120.1c4.3,0,7.8,3.5,7.8,7.8v44.2h3.6v-44.2c0-4,3.1-7.4,7.1-7.8L240.4,120.1z"/>
<linearGradient id="SVGID_6_" gradientUnits="userSpaceOnUse" x1="307.59" y1="308.0778" x2="307.59" y2="360.1078" gradientTransform="matrix(1 0 0 -1 0 480.3755)">
	<stop  offset="0" style="stop-color:#00B8D9;stop-opacity:0"/>
	<stop  offset="0.52" style="stop-color:#00B8D9"/>
</linearGradient>
<path class="st7" d="M306.1,128v44.2h3.6V128c0-4,3.1-7.4,7.1-7.8h-18.4C302.7,120.3,306.1,123.8,306.1,128z"/>
<linearGradient id="SVGID_7_" gradientUnits="userSpaceOnUse" x1="369.84" y1="308.0778" x2="369.84" y2="360.1378" gradientTransform="matrix(1 0 0 -1 0 480.3755)">
	<stop  offset="0" style="stop-color:#00B8D9;stop-opacity:0"/>
	<stop  offset="0.52" style="stop-color:#00B8D9"/>
</linearGradient>
<path class="st8" d="M364.1,139.5v32.8h3.6V128c0-4.3,3.5-7.8,7.8-7.8c0,0,0,0,0,0h-8.4v19.3H364.1z"/>
<linearGradient id="SVGID_8_" gradientUnits="userSpaceOnUse" x1="363.305" y1="308.0778" x2="363.305" y2="360.1378" gradientTransform="matrix(1 0 0 -1 0 480.3755)">
	<stop  offset="0" style="stop-color:#00B8D9;stop-opacity:0"/>
	<stop  offset="0.52" style="stop-color:#00B8D9"/>
</linearGradient>
<path class="st9" d="M363.6,125.2v-5H363l0.1,3.8C363.3,124.4,363.5,124.8,363.6,125.2z"/>
<linearGradient id="SVGID_9_" gradientUnits="userSpaceOnUse" x1="326.855" y1="315.3677" x2="326.855" y2="386.5677" gradientTransform="matrix(1 0 0 -1 0 480.3755)">
	<stop  offset="0" style="stop-color:#00B8D9;stop-opacity:0"/>
	<stop  offset="0.52" style="stop-color:#00B8D9"/>
</linearGradient>
<rect x="325.1" y="112.5" class="st10" width="3.6" height="4.4"/>
<linearGradient id="SVGID_10_" gradientUnits="userSpaceOnUse" x1="326.855" y1="315.3677" x2="326.855" y2="386.5677" gradientTransform="matrix(1 0 0 -1 0 480.3755)">
	<stop  offset="0" style="stop-color:#00B8D9;stop-opacity:0"/>
	<stop  offset="0.52" style="stop-color:#00B8D9"/>
</linearGradient>
<rect x="325.1" y="120.3" class="st11" width="3.6" height="44.7"/>
<linearGradient id="SVGID_11_" gradientUnits="userSpaceOnUse" x1="326.85" y1="315.3677" x2="326.85" y2="386.5677" gradientTransform="matrix(1 0 0 -1 0 480.3755)">
	<stop  offset="0" style="stop-color:#00B8D9;stop-opacity:0"/>
	<stop  offset="0.52" style="stop-color:#00B8D9"/>
</linearGradient>
<path class="st12" d="M328.6,111.8v-10.2c0-4.3,3.5-7.8,7.8-7.8l0,0h-19.2c4.3,0,7.8,3.5,7.8,7.8l0,0v8.3c0.2,0.2,0.5,0.3,0.7,0.5
	C326.7,111,327.6,111.5,328.6,111.8z"/>
<linearGradient id="SVGID_12_" gradientUnits="userSpaceOnUse" x1="363.88" y1="340.8777" x2="363.88" y2="386.5677" gradientTransform="matrix(1 0 0 -1 0 480.3755)">
	<stop  offset="0" style="stop-color:#00B8D9;stop-opacity:0"/>
	<stop  offset="0.52" style="stop-color:#00B8D9"/>
</linearGradient>
<path class="st13" d="M363.6,125.2v14.3h0.5V128C364.2,127.1,364,126.1,363.6,125.2z"/>
<linearGradient id="SVGID_13_" gradientUnits="userSpaceOnUse" x1="365.395" y1="340.8777" x2="365.395" y2="386.5677" gradientTransform="matrix(1 0 0 -1 0 480.3755)">
	<stop  offset="0" style="stop-color:#00B8D9;stop-opacity:0"/>
	<stop  offset="0.52" style="stop-color:#00B8D9"/>
</linearGradient>
<path class="st14" d="M367.2,101.6c0-4.3,3.5-7.8,7.8-7.8h-19.2c4.3,0,7.8,3.5,7.8,7.8c0,0,0,0,0,0v18.6h3.6V101.6z"/>
<linearGradient id="SVGID_14_" gradientUnits="userSpaceOnUse" x1="365.365" y1="308.0778" x2="365.365" y2="360.1378" gradientTransform="matrix(1 0 0 -1 0 480.3755)">
	<stop  offset="0" style="stop-color:#00B8D9;stop-opacity:0"/>
	<stop  offset="0.52" style="stop-color:#00B8D9"/>
</linearGradient>
<path class="st15" d="M364.1,128v11.4h3v-19.3h-3.6v5C363.9,126.1,364.1,127.1,364.1,128z"/>
<linearGradient id="SVGID_15_" gradientUnits="userSpaceOnUse" x1="365.365" y1="340.8777" x2="365.365" y2="386.5677" gradientTransform="matrix(1 0 0 -1 0 480.3755)">
	<stop  offset="0" style="stop-color:#00B8D9;stop-opacity:0"/>
	<stop  offset="0.52" style="stop-color:#00B8D9"/>
</linearGradient>
<path class="st16" d="M364.1,128v11.4h3v-19.3h-3.6v5C363.9,126.1,364.1,127.1,364.1,128z"/>
<linearGradient id="SVGID_16_" gradientUnits="userSpaceOnUse" x1="403.945" y1="315.4077" x2="403.945" y2="386.5977" gradientTransform="matrix(1 0 0 -1 0 480.3755)">
	<stop  offset="0" style="stop-color:#00B8D9;stop-opacity:0"/>
	<stop  offset="0.52" style="stop-color:#00B8D9"/>
</linearGradient>
<path class="st17" d="M402.2,101.6V165h3.6v-63.4c0-4.3,3.5-7.8,7.8-7.8c0,0,0,0,0,0h-19.2C398.7,93.8,402.2,97.3,402.2,101.6z"/>
<path class="st18" d="M344.7,120.3v-3.5h-19.6h-35h-21.3c0.3,0,0.5,0,0.8,0h-1.3v3.3h18.3h3.6h8.3h18.4h8.3h3.6L344.7,120.3z"/>
<path class="st18" d="M358.7,123.1c1.9,1.4,3.5,3.4,4.5,5.6l-0.1-4.6l-0.1-3.8l-0.1-3.4h-13.2v3.5h1.4
	C353.8,120.5,356.5,121.4,358.7,123.1z"/>
<path class="st18" d="M263.2,120.2v-3.3h-26.6c-0.4,0-0.9,0-1.3-0.1c-0.1,0-0.3,0-0.4-0.1s-0.6-0.1-0.8-0.1s-0.4-0.1-0.5-0.1
	s-0.5-0.1-0.7-0.2l-0.6-0.2l-0.6-0.2l-0.6-0.2l-0.5-0.3l-0.6-0.3l-0.5-0.3c-0.2-0.1-0.4-0.3-0.6-0.4l-0.4-0.3
	c-0.2-0.1-0.4-0.3-0.6-0.5c-0.1-0.1-0.2-0.2-0.3-0.3l-0.6-0.6l-0.2-0.2c-0.2-0.2-0.4-0.5-0.6-0.8l0,0c-1.5-1.9-2.4-4.1-2.8-6.5l0,0
	v3.2c0,6.4,5.2,11.6,11.6,11.6h5.2h18.4L263.2,120.2z"/>
<path class="st19" d="M257.1,80.6c-3.6-2.3-3.6-4.4-7.6-6.8c-3.2-2.2-7.1-3.1-11-2.8c-3.9,0.5-7.5,2.5-10.1,5.4
	c-2.5-1.2-5.3-1.6-8.1-1.3c-4.1,0.6-6,2.9-12.6,5.9c-1.4,0.6-2.6,1.1-3.7,1.5h57.8C260.2,82.2,258.6,81.5,257.1,80.6z"/>
<path class="st19" d="M325.1,112.5h5.5c-0.7-0.2-1.3-0.4-2-0.6c-1-0.4-1.9-0.8-2.8-1.4c-0.3-0.2-0.5-0.3-0.7-0.5
	c-2.9-2.1-3.2-4-6.8-6.3c-3.2-2.2-7.1-3.1-11-2.8c-3.9,0.5-7.5,2.5-10.1,5.4c-2.2-1-4.7-1.5-7.1-1.4c-0.4,0-0.7,0.1-1,0.1
	c-0.9,0.1-1.7,0.4-2.6,0.7c-2.7,1-5,2.9-10,5.2c-1.4,0.6-2.6,1.1-3.7,1.5H325.1L325.1,112.5z"/>
<polygon class="st20" points="344.7,93.8 344.7,90.4 269.6,90.4 268.2,90.4 268.2,93.9 279.5,93.8 297.5,93.8 "/>
<path class="st20" d="M226.3,111.8c0.2,0.3,0.4,0.5,0.6,0.8l0.2,0.2l0.6,0.6c0.1,0.1,0.2,0.2,0.3,0.3c0.2,0.2,0.4,0.3,0.6,0.5
	l0.4,0.3c0.2,0.1,0.4,0.3,0.6,0.4l0.5,0.3l0.6,0.3l0.5,0.3l0.6,0.2l0.6,0.2l0.6,0.2c0.2,0.1,0.5,0.1,0.7,0.2s0.3,0.1,0.5,0.1
	s0.6,0.1,0.8,0.1s0.3,0.1,0.4,0.1c0.4,0,0.9,0.1,1.3,0.1h26.6v-1.7c-4.2-2.3-6.9-6.8-6.9-11.6c0-1.4,0.2-2.8,0.6-4.1
	c1.6-2.1,3.7-3.8,6.2-4.7v-4.4h-26.6c-7.3,0-13.3,5.9-13.3,13.2c0,0,0,0,0,0c0,0.6,0,1.2,0.1,1.8C223.8,107.7,224.8,110,226.3,111.8
	L226.3,111.8z"/>
<polygon class="st20" points="426.1,90.3 349.7,90.4 349.7,93.8 426.1,93.7 "/>
<path class="st20" d="M268.8,116.8c-0.2,0-0.3,0-0.5,0v0.1h1.3C269.3,116.8,269,116.8,268.8,116.8z"/>
<linearGradient id="SVGID_17_" gradientUnits="userSpaceOnUse" x1="373.59" y1="362.0178" x2="373.59" y2="312.6478" gradientTransform="matrix(1 0 0 -1 0 480.3755)">
	<stop  offset="0" style="stop-color:#00C7E5"/>
	<stop  offset="0.25" style="stop-color:#00BFDF"/>
	<stop  offset="1" style="stop-color:#00B8D9;stop-opacity:0"/>
</linearGradient>
<path class="st21" d="M396,128.8c0,6.6-5.4,12-12,12h-32.9c6.6,0,12-5.4,12-12v-0.2c-0.1-6.5-5.5-11.7-12-11.7h32.9
	c6.5,0,11.9,5.2,12,11.7L396,128.8z"/>
<linearGradient id="SVGID_18_" gradientUnits="userSpaceOnUse" x1="30.7312" y1="442.6952" x2="138.0812" y2="442.6952" gradientTransform="matrix(1 4.000000e-02 4.000000e-02 -1 16.6825 538.3729)">
	<stop  offset="0.24" style="stop-color:#0049B0"/>
	<stop  offset="0.7" style="stop-color:#0052CC"/>
</linearGradient>
<path class="st22" d="M62.5,187.3c-1.5-0.3-0.5-6.5,0.1-37.5c0.3-16.5,0.3-26.4,5.8-38.3c1.9-4,4.1-7.7,6.8-11.2l6,5.5
	c-1.9-4.9-2.7-10.2-2.3-15.4c0.3-3.4,1.4-11,14.3-27.8c6.4-8.3,13.5-16,21.2-23.1l8.9,1.6c-1.2-2.3-1.7-5-1.2-7.6
	c1.3-5.4,7.4-8.7,24.1-14.2c7.7-2.5,17.7-5.6,29.7-8.6c-10.6,7.7-15.4,15.6-17.7,21.7s-3.3,12.5-8.5,15c-3.5,1.7-7.5,0.8-10.4-0.3
	c1.8,2.6,3.5,5.3,5.2,7.9c-7.6,5.8-14.1,12.8-19.2,20.8c-5.3,8.4-8.4,16.9-18,22.7c-2.5,1.5-5.2,2.7-8.1,3.5l5.8,4.1
	c-5,5.9-9.7,12-13.9,18.5C69.4,158,65.9,187.9,62.5,187.3z"/>
<linearGradient id="SVGID_19_" gradientUnits="userSpaceOnUse" x1="105.7203" y1="183.3658" x2="192.5939" y2="183.3658" gradientTransform="matrix(1 -0.1 -0.1 -1 -28.3912 370.1019)">
	<stop  offset="0" style="stop-color:#0049B0"/>
	<stop  offset="0.7" style="stop-color:#0065FF"/>
</linearGradient>
<path class="st23" d="M66,249.1c-1.3-0.1-1.2-5.1-4.2-30.1c-1.6-13.3-2.8-21.2,0.3-31.3c1-3.4,2.4-6.6,4.2-9.7l5.5,3.7
	c-2.1-3.7-3.3-7.8-3.6-12.1c-0.2-2.8-0.1-8.9,8.4-23.9c4.2-7.4,9-14.4,14.4-20.9l7.3,0.3c-1.3-1.7-1.9-3.8-1.8-5.9
	c0.4-4.5,5-7.8,17.7-14.1c5.9-2.9,13.6-6.5,22.9-10.2c-7.6,7.4-10.5,14.2-11.8,19.4s-1.2,10.4-5.1,13c-2.6,1.7-5.9,1.5-8.3,0.9
	l5.1,5.7c-5.4,5.5-9.8,11.9-13,18.9c-3.4,7.3-4.9,14.5-11.9,20.2c-1.8,1.5-3.9,2.8-6.1,3.7l5.1,2.6c-3.4,5.3-6.4,10.8-9,16.4
	C68.2,224.8,68.8,249.2,66,249.1z"/>
<linearGradient id="SVGID_20_" gradientUnits="userSpaceOnUse" x1="-2617.6562" y1="787.9335" x2="-2558.3262" y2="787.9335" gradientTransform="matrix(-0.95 -0.32 0.32 -0.95 -2660.4702 41.6266)">
	<stop  offset="0" style="stop-color:#0052CC"/>
	<stop  offset="1" style="stop-color:#0049B0"/>
</linearGradient>
<path class="st24" d="M59.4,162.3c-2.6-6.3-4.6-11.7-6-15.7c-4.8-13.7-5.3-18-4.7-22.2c0.5-3.4,1.7-6.6,3.5-9.6
	c-8.2-4.8-11.6-10.1-13.2-13.9C36,93.3,36,81.4,36,75c0-3.9,1.5-20.4,6.1-23.7c1.5,2.7,3.5,6.7,5.7,11.6
	c5.5,12.2,14.9,33.4,16.8,62.9c1.4,21.9-1.5,43.8-8.5,64.5l0,0"/>
<linearGradient id="SVGID_21_" gradientUnits="userSpaceOnUse" x1="61.71" y1="381.3284" x2="175.93" y2="381.3284" gradientTransform="matrix(1 0 0 -1 0 480.3755)">
	<stop  offset="0" style="stop-color:#0052CC"/>
	<stop  offset="1" style="stop-color:#0065FF"/>
</linearGradient>
<path class="st25" d="M150,29.3c6.6-5.2,13.6-10,20.8-14.4c1.5-1.4,3.2-2.8,5.1-4.2l0,0l-3.6,0.9c-8.2,4.8-16.1,10.1-23.6,16
	c-56.8,44.7-78.7,110.2-87,157.9c0.1,1.1,0.3,1.6,0.7,1.7s0.8-0.3,1.2-1C71.9,139,93.5,73.7,150,29.3z"/>
<linearGradient id="SVGID_22_" gradientUnits="userSpaceOnUse" x1="-2089.3333" y1="1021.6063" x2="-2127.7231" y2="1047.0563" gradientTransform="matrix(-0.83 -0.55 0.55 -0.83 -2245.1111 -210.9862)">
	<stop  offset="0" style="stop-color:#0049B0"/>
	<stop  offset="1" style="stop-color:#0052CC"/>
</linearGradient>
<path class="st26" d="M52.4,175.2c1.3,0.6,4-4.6,20.5-28.2c8.8-12.6,14.3-20,16.6-31.9c0.8-4,1.1-8,1-12.1l-7.5,0.8
	c4.1-2.7,7.6-6.2,10.2-10.3c6-9.7,5.1-20.1,4.4-28.7C97,59,95.9,53.3,94.1,47.8c-1-3.2-2.2-6.3-3.5-9.3c-2.3-0.5-4.7-1.3-4.7-2.2
	c0-1.1,3.7-1.3,4.6-2.7c1.6-2.5-4-10.3-24.9-28.4c0.1,5.4-0.1,10.8-0.6,16.1c-0.3,3.1-1,6.2,0.9,8.7s5.1,2.8,5,3.4
	c-0.1,0.4-1.4,0.7-7.1,0.2c0.3,1.8,0.7,4.3,1.1,7.2c0.6,4.8,1.1,10.1,1.3,16.2c0.5,16.1-2,19.6,1,26.9c1.1,2.5,2.5,4.9,4.2,7
	l-6.6-0.1c0.6,7.2,0.7,14.4,0.3,21.5C63.2,149.3,49.5,173.8,52.4,175.2z"/>
<linearGradient id="SVGID_23_" gradientUnits="userSpaceOnUse" x1="72.3905" y1="471.6877" x2="66.1805" y2="317.7877" gradientTransform="matrix(1 0 0 -1 0 480.3755)">
	<stop  offset="0" style="stop-color:#0065FF"/>
	<stop  offset="1" style="stop-color:#0052CC"/>
</linearGradient>
<path class="st27" d="M68.3,7.5l-2.6-2.3c0,0.7,0,1.3,0,1.9C85.1,38,82,72.3,80.3,90.9c-2.8,29.5-12.5,57.9-28.3,83
	c0,0.7,0,1.2,0.4,1.3s1.1-0.3,2.5-2.1c15.3-24.9,24.7-52.9,27.5-82C84,72.5,87,38.5,68.3,7.5z"/>
<linearGradient id="SVGID_24_" gradientUnits="userSpaceOnUse" x1="-128.8523" y1="525.6732" x2="-59.8423" y2="525.6732" gradientTransform="matrix(1.09 0.17 0.16 -1.02 129.0192 674.8234)">
	<stop  offset="9.000000e-02" style="stop-color:#0049B0"/>
	<stop  offset="0.53" style="stop-color:#0052CC"/>
	<stop  offset="1" style="stop-color:#0049B0"/>
</linearGradient>
<path class="st28" d="M73.7,154.3c5.7-4.5,10.4-8.4,13.8-11.3c11.6-10.1,14.2-13.7,15.7-17.9c1.2-3.3,1.6-6.9,1.4-10.4
	c7-0.6,13.8-2.7,19.8-6.2c5.1-3,9.5-7.1,13-11.9l-3.6-7.9c1.6,1.1,5.3,3.2,9.3,2.4c3.3-0.7,5.3-3.1,8.4-6.9c1.7-2,3.1-4.2,4.3-6.4
	L146,62c-2.8,1.8-6.8,4.4-11.4,7.8c-11.4,8.3-31.3,23.1-47.9,48.9c-12.2,19-20.4,40.4-23.9,62.8l0,0"/>
<linearGradient id="SVGID_25_" gradientUnits="userSpaceOnUse" x1="87.2" y1="273.0528" x2="354.11" y2="273.0528" gradientTransform="matrix(1 0 0 -1 0 480.3755)">
	<stop  offset="0" style="stop-color:#C1C7D0"/>
	<stop  offset="1" style="stop-color:#DEE1E4"/>
</linearGradient>
<path class="st29" d="M108.8,112.1h223.7c11.9,0,21.6,9.7,21.6,21.6l0,0v168.8l0,0H87.2l0,0V133.7
	C87.2,121.8,96.9,112.1,108.8,112.1z"/>
<linearGradient id="SVGID_26_" gradientUnits="userSpaceOnUse" x1="120.705" y1="173.3027" x2="320.365" y2="372.9628" gradientTransform="matrix(1 0 0 -1 0 480.3755)">
	<stop  offset="0.35" style="stop-color:#00C7E5"/>
	<stop  offset="0.82" style="stop-color:#B3F5FF"/>
</linearGradient>
<rect x="101.6" y="126.5" class="st30" width="237.9" height="161.4"/>
<g>
	<defs>
		<rect id="SVGID_27_" x="101.6" y="126.5" width="237.9" height="161.4"/>
	</defs>
	<clipPath id="SVGID_28_">
		<use xlink:href="#SVGID_27_"  style="overflow:visible;"/>
	</clipPath>
	<g class="st31">
		<g>
			<rect x="270.2" y="126.2" class="st32" width="66.7" height="146.1"/>
			<g>
				<defs>
					<rect id="SVGID_29_" x="270.2" y="126.2" width="66.7" height="146.1"/>
				</defs>
				<clipPath id="SVGID_30_">
					<use xlink:href="#SVGID_29_"  style="overflow:visible;"/>
				</clipPath>
				<g class="st33">
					<path class="st34" d="M270.2,197.1c0,3.9-3.1,7-7,7s-7-3.1-7-7s3.1-7,7-7S270.2,193.2,270.2,197.1z M319.8,184.3h-68.4v26.1
						h68.4V184.3z"/>
				</g>
			</g>
		</g>
		
			<linearGradient id="SVGID_31_" gradientUnits="userSpaceOnUse" x1="253.4375" y1="227.9303" x2="359.8225" y2="334.3153" gradientTransform="matrix(1 0 0 -1 0 480.3755)">
			<stop  offset="9.000000e-02" style="stop-color:#FFAB00"/>
			<stop  offset="0.48" style="stop-color:#FFB800"/>
			<stop  offset="1" style="stop-color:#FFC400"/>
		</linearGradient>
		<rect x="273.3" y="126.2" class="st35" width="66.7" height="146.1"/>
		<g>
			<defs>
				<rect id="SVGID_32_" x="273.3" y="126.2" width="66.7" height="146.1"/>
			</defs>
			<clipPath id="SVGID_33_">
				<use xlink:href="#SVGID_32_"  style="overflow:visible;"/>
			</clipPath>
			<g class="st36">
				
					<linearGradient id="SVGID_34_" gradientUnits="userSpaceOnUse" x1="254.49" y1="283.0378" x2="322.86" y2="283.0378" gradientTransform="matrix(1 0 0 -1 0 480.3755)">
					<stop  offset="0.3" style="stop-color:#FFAB00"/>
					<stop  offset="0.41" style="stop-color:#FFBE30"/>
					<stop  offset="0.53" style="stop-color:#FFD05E"/>
					<stop  offset="0.64" style="stop-color:#FFDE83"/>
					<stop  offset="0.75" style="stop-color:#FFE89D"/>
					<stop  offset="0.85" style="stop-color:#FFEEAC"/>
					<stop  offset="0.92" style="stop-color:#FFF0B2"/>
				</linearGradient>
				<path class="st37" d="M273.3,197.1c0,3.9-3.1,7-7,7s-7-3.1-7-7s3.1-7,7-7S273.3,193.2,273.3,197.1z M322.9,184.3h-68.4v26.1
					h68.4V184.3z"/>
			</g>
		</g>
		<path class="st38" d="M159.4,249.8c-36.7,0-70.3,14.5-96.7,38.7h193.4C229.7,264.3,196.1,249.8,159.4,249.8z"/>
		<path class="st39" d="M279.3,222.5c0.1,0.3,0.2,0.8,0.3,1.4c0.1,1,0.2,1.8,0,1.9s-1-0.5-1.4-1c-0.2-0.3-0.4-0.7-0.5-1.1
			c0-0.6,0-1.2,0.1-1.8c0.2-0.3,0.5-0.5,0.9-0.4C279.1,221.6,279.4,222,279.3,222.5z"/>
		<path class="st39" d="M276.5,222.5c-0.1,0.5-0.2,0.9-0.3,1.4c-0.1,1-0.2,1.8,0,1.9s1-0.5,1.4-1c0.2-0.3,0.4-0.7,0.5-1.1
			c0-0.6,0-1.2-0.1-1.8c-0.2-0.3-0.5-0.5-0.9-0.4C276.8,221.6,276.5,222,276.5,222.5z"/>
		
			<linearGradient id="SVGID_35_" gradientUnits="userSpaceOnUse" x1="110.81" y1="215.1933" x2="372" y2="215.1933" gradientTransform="matrix(1 0 0 -1 0 480.3755)">
			<stop  offset="0" style="stop-color:#00A3BF"/>
			<stop  offset="1.000000e-02" style="stop-color:#00A3C0"/>
			<stop  offset="0.59" style="stop-color:#00B3D2"/>
			<stop  offset="1" style="stop-color:#00B8D9"/>
		</linearGradient>
		<path class="st40" d="M257.9,241.7c-32.9-2-57.5,5.8-76.5,12c-25.1,8.3-48.9,20.2-70.6,35.4l261.2-0.6
			c-13.3-10.8-27.7-20.1-43.1-27.5C295.4,244.7,267.4,242.2,257.9,241.7z"/>
		<g>
			<defs>
				<path id="SVGID_36_" d="M257.9,241.7c-32.9-2-57.5,5.8-76.5,12c-25.1,8.3-48.9,20.2-70.6,35.4l261.2-0.6
					c-13.3-10.8-27.7-20.1-43.1-27.5C295.4,244.7,267.4,242.2,257.9,241.7z"/>
			</defs>
			<clipPath id="SVGID_37_">
				<use xlink:href="#SVGID_36_"  style="overflow:visible;"/>
			</clipPath>
			<g class="st41">
				
					<linearGradient id="SVGID_38_" gradientUnits="userSpaceOnUse" x1="333.0199" y1="193.1677" x2="318.6299" y2="228.8877" gradientTransform="matrix(1 0 0 -1 0 480.3755)">
					<stop  offset="0" style="stop-color:#00A3BF"/>
					<stop  offset="0.11" style="stop-color:#00A3BF;stop-opacity:0.97"/>
					<stop  offset="0.26" style="stop-color:#00A3BF;stop-opacity:0.88"/>
					<stop  offset="0.43" style="stop-color:#00A3BF;stop-opacity:0.73"/>
					<stop  offset="0.62" style="stop-color:#00A3BF;stop-opacity:0.53"/>
					<stop  offset="0.82" style="stop-color:#00A3BF;stop-opacity:0.27"/>
					<stop  offset="1" style="stop-color:#00A3BF;stop-opacity:0"/>
				</linearGradient>
				<path class="st42" d="M319.4,277.4c2,1.8,3.5,1.8,3.9,3.3c0.5,1.8-1.4,2.7-1.5,4.8c-0.1,4.3,7.9,7.5,8.8,7.8
					c4,1.6,9,2.1,9.6,0.8s-3.5-2.6-3.8-6c-0.4-3.9,4.6-6.2,3.6-9c-0.5-1.6-2.2-1-3.6-2.9c-2.7-3.5,0.8-8.8-1.4-10.5
					c-1.4-1.1-3.1,0.7-4.8-0.4c-2.1-1.4-0.4-4.8-2.5-8.3c-1.7-2.8-5.3-5-7.5-4c-1.8,0.8-2.4,3.6-2.4,5.4c0,3.2,2.1,4.2,1.5,6.6
					c-0.5,2.1-2.3,1.8-3,4C315.3,271.7,317.2,275.3,319.4,277.4z"/>
			</g>
		</g>
		<path class="st19" d="M153.3,151.6c-2.6,0-4.7-2.1-4.7-4.8c0-2.6,2.1-4.7,4.8-4.7c2.6,0,4.7,2.1,4.7,4.7
			C158,149.5,155.9,151.6,153.3,151.6C153.3,151.6,153.3,151.6,153.3,151.6z M153.3,144.1c-1.5,0-2.7,1.2-2.7,2.7s1.2,2.7,2.7,2.7
			c1.5,0,2.7-1.2,2.7-2.7S154.8,144.1,153.3,144.1C153.3,144.1,153.3,144.1,153.3,144.1z"/>
		<path class="st19" d="M189.4,186.1h-52.6v-52.6h52.6V186.1z M138.8,184.1h48.5v-48.6h-48.5V184.1z"/>
		<path class="st43" d="M273.8,201.7c-0.2,0.9-0.4,1.8-0.6,2.7c-0.1,0.8-0.1,1.7-0.1,2.5c0,0.5,0.1,0.9,0.2,1.4l3.1,13.9h3.3
			c0.4-3,0.5-5.4,0.6-7c0-1.2,0-1.6,0.1-2.6c0.3-3.1,0.7-3.4,0.8-5.6c0.2-1.8-0.1-3.5-0.9-5.1c-0.3-0.5-0.6-1-1-1.5L273.8,201.7z"/>
		
			<linearGradient id="SVGID_39_" gradientUnits="userSpaceOnUse" x1="236.8513" y1="160.2481" x2="253.4313" y2="175.5981" gradientTransform="matrix(1.08 -9.000000e-02 -8.000000e-02 -0.99 28.5599 398.9844)">
			<stop  offset="0" style="stop-color:#0049B0"/>
			<stop  offset="0.14" style="stop-color:#004FC1"/>
			<stop  offset="0.45" style="stop-color:#005BE3"/>
			<stop  offset="0.72" style="stop-color:#0062F7"/>
			<stop  offset="0.89" style="stop-color:#0065FF"/>
		</linearGradient>
		<path class="st44" d="M277.6,222.2h2.1c0.4-3,0.5-5.4,0.6-7c0-1.2,0-1.6,0.1-2.6c0.3-3.1,0.7-3.4,0.8-5.6c0.1-1.4,0-2.8-0.5-4.2
			l-4.7,0.4L277.6,222.2z"/>
		<path class="st39" d="M273.3,189.2c-0.1,0.6,0,1.1,0.1,1.7c-0.4,0.3-0.7,0.6-0.9,1c-0.3,0.6-0.5,1.3-0.3,2
			c0.2,0.8,0.6,0.9,0.6,1.4s-0.6,0.7-0.9,1.5c-0.2,0.5-0.2,0.9-0.1,1.4c0.5,2.1,8.7,2.4,9.3,0.7c0.2-0.6,0.1-1.2-0.3-1.7
			c-0.2-0.3-0.5-0.3-0.5-0.6c-0.1-0.4,0.4-0.7,0.7-1.2c0.4-0.8,0.4-1.8,0-2.7c-0.4-0.6-1-1.1-1.8-1.2c0.2-0.8,0.2-1.6,0-2.4
			c-0.3-1.1-1-2-2.1-2.4c-0.7-0.2-1.4-0.2-2.1,0.1C274.1,187.2,273.4,188.1,273.3,189.2z"/>
		<path class="st45" d="M274.8,192.2c0.4-0.2,0.8-0.3,1.3-0.3c0.5,0,1,0.1,1.5,0.4l0.1,0.8l-2.4,1.1l-0.8-1L274.8,192.2z"/>
		
			<linearGradient id="SVGID_40_" gradientUnits="userSpaceOnUse" x1="276.2065" y1="287.1577" x2="276.2065" y2="289.5577" gradientTransform="matrix(1 0 0 -1 0 480.3755)">
			<stop  offset="0.18" style="stop-color:#D2B494"/>
			<stop  offset="0.37" style="stop-color:#CFB292"/>
			<stop  offset="1" style="stop-color:#978475"/>
		</linearGradient>
		<path class="st46" d="M275,192.4c0.1-0.2,0.2-0.3,0.2-0.5c0.1-0.3,0.1-0.7,0-1c0.3,0.1,0.7,0.1,1,0c0.4,0,0.8,0,1.2,0v0.8
			c0,0.2,0,0.5,0.1,0.7c0.1,0.2,0.2,0.4,0.5,0.5c-0.3,0.1-0.5,0.2-0.7,0.3c-0.2,0.1-0.5,0.1-0.7,0.1c-0.2,0-0.5,0-0.7,0
			c-0.2,0-0.4-0.1-0.6-0.1c-0.1,0-0.3,0-0.4-0.1c-0.1-0.1-0.3-0.2-0.2-0.3C274.7,192.7,274.9,192.6,275,192.4z"/>
		<path class="st47" d="M279.2,193.1c0.1,0.5-1.4,1.5-2.9,1.6s-3.1-1-3-1.5s1.1-0.5,2-0.6C276.6,192.5,279.1,192.5,279.2,193.1z"/>
		<path class="st45" d="M266.8,203.8c1.5-0.4,2.8-1.1,4-2c1-0.7,1.9-1.7,2.4-2.9c0.2-0.5,0.4-1.1,0.5-1.6c0.7-2.3,0.6-2.9,0.4-3.2
			c-0.2-0.3-0.5-0.5-0.9-0.6c-0.3,0-0.6,0.1-0.9,0.4c-0.9,0.8-0.5,2-1.2,4.1c-0.1,0.4-0.3,0.8-0.4,0.9l-4.5,3.3L266.8,203.8z"/>
		<path class="st43" d="M277.5,192.2c0.1,0.3,0.1,0.6-0.1,0.8c-0.1,0.2-0.3,0.4-0.5,0.4c-0.4,0.2-0.7,0.6-0.8,1
			c-0.2-0.7-0.5-0.9-0.8-1c-0.2,0-0.4-0.1-0.5-0.3c-0.2-0.3-0.2-0.7-0.1-1c-0.4,0.2-0.8,0.4-1.2,0.7c-0.5,0.3-0.9,0.7-1.3,1.2
			l-0.1,0.2c0.1,0,0.2,0.1,0.2,0.1c0.1,0.1,0.2,0.3,0.1,1c0,0.3-0.2,0.7,0.4,1.6c1.1,1.5,1.4,3.6,0.7,5.4l6.5-0.2
			c-0.7-1.2-0.9-2.5-0.7-3.9c0.1-0.6,0.3-1.3,0.7-1.8c0.2-0.6,0.3-1.1,0.4-1.7c0-0.3,0-0.7,0-1c-0.3-0.4-0.6-0.7-1.1-0.9
			c-0.3-0.1-0.5-0.1-1-0.3C278,192.4,277.7,192.3,277.5,192.2z"/>
		<path class="st47" d="M278.4,188.9c0.1,0.5,0.1,0.9,0,1.4c0,0.3-0.1,0.6-0.2,0.8c-0.1,0.3-0.3,0.6-0.6,0.8
			c-0.7,0.4-1.7-0.2-2.3-0.9c-0.5-0.5-0.7-1.3-0.6-2c0.1-1,1.1-1.8,2.1-1.7C277.6,187.4,278.2,188,278.4,188.9L278.4,188.9z"/>
		<path class="st39" d="M273,192.6c0.1,0.3,0.5,0.5,0.6,0.5c0.7,0.2,1.5-0.1,1.9-0.7c0.4-0.5,0.5-1.2,0.2-1.8
			c-0.1-0.1-0.1-0.2-0.1-0.3c0-0.2,0.3-0.4,0.5-0.6c1.3-0.8,1.6-0.9,1.9-1.3c0.1-0.2,0.2-0.5,0.2-0.7c-0.1-0.5-0.8-0.7-1-0.8
			c-0.9-0.2-1.8,0.1-2.4,0.7c-0.7,0.8-1,1.8-0.8,2.9c0,0.3,0.1,0.5,0.2,0.7C273.3,191.7,272.9,192.2,273,192.6z"/>
		<rect x="136.6" y="191.2" class="st19" width="121" height="2"/>
		<rect x="136.6" y="197.3" class="st19" width="121" height="2"/>
		<rect x="136.6" y="203.4" class="st19" width="121" height="2"/>
		<rect x="136.6" y="209.5" class="st19" width="121" height="2"/>
		<rect x="136.6" y="215.6" class="st19" width="98.4" height="2"/>
		
			<linearGradient id="SVGID_41_" gradientUnits="userSpaceOnUse" x1="275.3975" y1="265.4803" x2="322.6125" y2="312.6953" gradientTransform="matrix(1 0 0 -1 0 480.3755)">
			<stop  offset="0.26" style="stop-color:#E9EAED"/>
			<stop  offset="1" style="stop-color:#F9F9F8"/>
		</linearGradient>
		<path class="st48" d="M283.6,191c0,3.9-3.1,7-7,7s-7-3.1-7-7s3.1-7,7-7l0,0C280.5,184,283.6,187.2,283.6,191z M333.2,178.3h-68.4
			v26.1h68.4V178.3z"/>
		
			<linearGradient id="SVGID_42_" gradientUnits="userSpaceOnUse" x1="-4595.064" y1="-42.2403" x2="-4595.064" y2="11.1197" gradientTransform="matrix(-1 7.000000e-02 -7.000000e-02 -1 -4261.459 579.336)">
			<stop  offset="0" style="stop-color:#00B8D9"/>
			<stop  offset="1" style="stop-color:#79E2F2"/>
		</linearGradient>
		<path class="st49" d="M325.8,266c-0.4,2.5-1.7,2.3-2.4,5.1c-1.4,5.6,2.9,11.1,4.8,13.5c2.6,3.3,5.1,6.5,8.1,6.1
			c3.6-0.4,6.6-5.6,6.7-10c0-3.4-1.9-4.5-1.2-7.5c0.8-3.3,4-3.6,4.1-6c0-2.3-2.7-2.5-3.7-5.7c-1.2-3.6,1.7-5.5,0.4-8.5
			c-1.2-2.6-3.7-1.9-4.8-4.6c-1.3-3,1.3-5.1-0.1-7.9c-1.2-1.9-3.3-3.1-5.5-3c-3.6,0.1-6.4,3.6-6.7,6.6s2.4,4.9,1.4,7.2
			c-0.9,2.1-3.3,1.4-4.2,3.3C321.2,257.6,326.5,260.8,325.8,266z"/>
		<path class="st18" d="M342.6,278.2l-6.3,11.3l-1-13.3l7.5-13.4c-0.2-0.3-0.3-0.6-0.4-0.9l-7.1,12.8L334,259l5-9
			c-0.2-0.2-0.4-0.3-0.6-0.5l-4.5,8l-0.7-9.2l4.4-7.8l0,0c-0.1-0.3-0.3-0.5-0.5-0.8l-4,7.1l-0.7-9.4h-0.4h-0.5l0.7,9.3l-5.8-6
			c-0.1,0.2-0.3,0.5-0.4,0.7l6.3,6.5l0.7,9.4l-6.2-6.5c0,0.1-0.1,0.2-0.1,0.3c-0.1,0.2-0.2,0.4-0.3,0.5l6.7,7l1.2,15.9l-8.6-9
			c0,0.1,0,0.2,0,0.3c0,0.2-0.1,0.5-0.1,0.7l8.9,9.2l1,13.5l-11.6-12.1c0.3,0.7,0.6,1.4,0.9,2.1l10.7,11.2c0.3,0,0.5,0,0.8,0
			l0.3-0.1l6.3-11.2C342.8,278.9,342.7,278.5,342.6,278.2z"/>
		<rect x="266.8" y="223.5" class="st50" width="72.7" height="3.1"/>
	</g>
</g>
<linearGradient id="SVGID_43_" gradientUnits="userSpaceOnUse" x1="101.59" y1="348.6378" x2="339.48" y2="348.6378" gradientTransform="matrix(1 0 0 -1 0 480.3755)">
	<stop  offset="0.33" style="stop-color:#DEE1E4"/>
	<stop  offset="1" style="stop-color:#F9F9F8"/>
</linearGradient>
<rect x="101.6" y="126.5" class="st51" width="237.9" height="10.4"/>
<radialGradient id="SVGID_44_" cx="56.68" cy="-282.9471" r="57.18" gradientTransform="matrix(1 -2.000000e-02 0 -0.25 -1.71 276.486)" gradientUnits="userSpaceOnUse">
	<stop  offset="0" style="stop-color:#0049B0"/>
	<stop  offset="1" style="stop-color:#0049B0;stop-opacity:0"/>
</radialGradient>
<ellipse class="st52" cx="56.8" cy="353.2" rx="56.8" ry="11.2"/>
<polyline class="st53" points="121.6,232.1 147.6,241.9 183.5,200.3 219.6,216.1 272.6,129.3 "/>
<circle class="st43" cx="147.6" cy="241.5" r="5.6"/>
<circle class="st43" cx="183.5" cy="200.4" r="5.6"/>
<circle class="st43" cx="219.8" cy="216.2" r="5.6"/>
<circle class="st43" cx="273.3" cy="127.6" r="5.6"/>
<circle class="st54" cx="147.6" cy="241.5" r="2.6"/>
<circle class="st55" cx="183.5" cy="200.4" r="2.6"/>
<circle class="st18" cx="273.3" cy="127.6" r="2.6"/>
<circle class="st18" cx="219.8" cy="216.2" r="2.6"/>
<radialGradient id="SVGID_45_" cx="373.83" cy="-221.5222" r="47.88" gradientTransform="matrix(1 0 0 -0.25 0.45 302.6847)" gradientUnits="userSpaceOnUse">
	<stop  offset="0" style="stop-color:#0049B0"/>
	<stop  offset="1" style="stop-color:#0049B0;stop-opacity:0"/>
</radialGradient>
<ellipse class="st56" cx="373.6" cy="365.4" rx="47.2" ry="9.3"/>
<path class="st57" d="M87.1,304.7H354l0,0v86.2c0,6.1-9.7,11-21.6,11H108.7c-11.9,0-21.6-4.9-21.6-11l0,0V304.7L87.1,304.7z"/>
<linearGradient id="SVGID_46_" gradientUnits="userSpaceOnUse" x1="132.8646" y1="48.3418" x2="308.2154" y2="223.6927" gradientTransform="matrix(1 0 0 -1 0 480.3755)">
	<stop  offset="0.33" style="stop-color:#DEE1E4"/>
	<stop  offset="1" style="stop-color:#F9F9F8"/>
</linearGradient>
<path class="st58" d="M87.1,302.5H354l0,0v81.4c0,5.8-9.7,10.4-21.6,10.4H108.7c-11.9,0-21.6-4.7-21.6-10.4l0,0V302.5L87.1,302.5z"
	/>
<rect x="123.9" y="319.5" class="st57" width="20.2" height="8.2"/>
<rect x="123.9" y="337.3" class="st57" width="20.2" height="8.2"/>
<rect x="145.6" y="319.5" class="st57" width="20.2" height="8.2"/>
<rect x="123.9" y="328.4" class="st57" width="20.2" height="8.2"/>
<rect x="210.4" y="319.5" class="st57" width="20.2" height="8.2"/>
<rect x="167.2" y="319.5" class="st57" width="20.2" height="8.2"/>
<rect x="188.8" y="319.5" class="st57" width="20.2" height="8.2"/>
<rect x="297" y="346.2" class="st57" width="20.2" height="8.2"/>
<rect x="232.1" y="346.2" class="st57" width="20.2" height="8.2"/>
<rect x="232.1" y="319.5" class="st57" width="20.2" height="8.2"/>
<rect x="123.9" y="346.2" class="st57" width="20.2" height="8.2"/>
<rect x="275.3" y="346.2" class="st57" width="20.2" height="8.2"/>
<rect x="253.7" y="346.2" class="st57" width="20.2" height="8.2"/>
<rect x="145.6" y="346.2" class="st57" width="20.2" height="8.2"/>
<rect x="188.8" y="346.2" class="st57" width="20.2" height="8.2"/>
<rect x="167.2" y="346.2" class="st57" width="20.2" height="8.2"/>
<rect x="210.4" y="346.2" class="st57" width="20.2" height="8.2"/>
<rect x="145.6" y="328.4" class="st57" width="20.2" height="8.2"/>
<rect x="167.2" y="337.3" class="st57" width="20.2" height="8.2"/>
<rect x="188.8" y="328.4" class="st57" width="20.2" height="8.2"/>
<rect x="145.6" y="337.3" class="st57" width="20.2" height="8.2"/>
<rect x="167.2" y="328.4" class="st57" width="20.2" height="8.2"/>
<rect x="253.7" y="328.4" class="st57" width="20.2" height="8.2"/>
<rect x="253.7" y="319.5" class="st57" width="20.2" height="8.2"/>
<rect x="210.4" y="328.4" class="st57" width="20.2" height="8.2"/>
<rect x="232.1" y="328.4" class="st57" width="20.2" height="8.2"/>
<rect x="275.3" y="328.4" class="st57" width="20.2" height="8.2"/>
<rect x="275.3" y="319.5" class="st57" width="20.2" height="8.2"/>
<rect x="275.3" y="337.3" class="st57" width="20.2" height="8.2"/>
<rect x="188.8" y="337.3" class="st57" width="20.2" height="8.2"/>
<rect x="210.4" y="337.3" class="st57" width="20.2" height="8.2"/>
<rect x="232.1" y="337.3" class="st57" width="20.2" height="8.2"/>
<rect x="318.6" y="319.5" class="st57" width="20.2" height="8.2"/>
<rect x="318.6" y="310.6" class="st57" width="20.2" height="8.2"/>
<rect x="318.6" y="328.4" class="st57" width="20.2" height="8.2"/>
<rect x="102.3" y="346.2" class="st57" width="20.2" height="8.2"/>
<rect x="318.6" y="337.3" class="st57" width="20.2" height="8.2"/>
<rect x="318.6" y="346.2" class="st57" width="20.2" height="8.2"/>
<rect x="275.3" y="310.6" class="st57" width="20.2" height="8.2"/>
<rect x="253.7" y="310.6" class="st57" width="20.2" height="8.2"/>
<rect x="297" y="337.3" class="st57" width="20.2" height="8.2"/>
<rect x="232.1" y="310.6" class="st57" width="20.2" height="8.2"/>
<rect x="297" y="310.6" class="st57" width="20.2" height="8.2"/>
<rect x="297" y="328.4" class="st57" width="20.2" height="8.2"/>
<rect x="297" y="319.5" class="st57" width="20.2" height="8.2"/>
<rect x="210.4" y="310.6" class="st57" width="20.2" height="8.2"/>
<rect x="102.3" y="319.5" class="st57" width="20.2" height="8.2"/>
<rect x="102.3" y="337.3" class="st57" width="20.2" height="8.2"/>
<rect x="102.3" y="328.4" class="st57" width="20.2" height="8.2"/>
<rect x="102.3" y="310.6" class="st57" width="20.2" height="8.2"/>
<rect x="123.9" y="310.6" class="st57" width="20.2" height="8.2"/>
<rect x="167.2" y="310.6" class="st57" width="20.2" height="8.2"/>
<rect x="188.8" y="310.6" class="st57" width="20.2" height="8.2"/>
<rect x="145.6" y="310.6" class="st57" width="20.2" height="8.2"/>
<rect x="123.9" y="318.7" class="st59" width="20.2" height="8.2"/>
<rect x="123.9" y="336.5" class="st59" width="20.2" height="8.2"/>
<rect x="145.6" y="318.7" class="st59" width="20.2" height="8.2"/>
<rect x="123.9" y="327.6" class="st59" width="20.2" height="8.2"/>
<rect x="210.4" y="318.7" class="st59" width="20.2" height="8.2"/>
<rect x="167.2" y="318.7" class="st59" width="20.2" height="8.2"/>
<rect x="188.8" y="318.7" class="st59" width="20.2" height="8.2"/>
<rect x="297" y="345.4" class="st59" width="20.2" height="8.2"/>
<rect x="232.1" y="345.4" class="st59" width="20.2" height="8.2"/>
<rect x="232.1" y="318.7" class="st59" width="20.2" height="8.2"/>
<rect x="123.9" y="345.4" class="st59" width="20.2" height="8.2"/>
<rect x="275.3" y="345.4" class="st59" width="20.2" height="8.2"/>
<rect x="145.6" y="345.4" class="st59" width="20.2" height="8.2"/>
<rect x="188.8" y="345.4" class="st59" width="20.2" height="8.2"/>
<rect x="167.2" y="345.4" class="st59" width="20.2" height="8.2"/>
<rect x="210.4" y="345.4" class="st59" width="20.2" height="8.2"/>
<rect x="145.6" y="327.6" class="st59" width="20.2" height="8.2"/>
<rect x="167.2" y="336.5" class="st59" width="20.2" height="8.2"/>
<rect x="188.8" y="327.6" class="st59" width="20.2" height="8.2"/>
<rect x="145.6" y="336.5" class="st59" width="20.2" height="8.2"/>
<rect x="167.2" y="327.6" class="st59" width="20.2" height="8.2"/>
<rect x="253.7" y="327.6" class="st59" width="20.2" height="8.2"/>
<rect x="253.7" y="318.7" class="st59" width="20.2" height="8.2"/>
<rect x="210.4" y="327.6" class="st59" width="20.2" height="8.2"/>
<rect x="232.1" y="327.6" class="st59" width="20.2" height="8.2"/>
<rect x="275.3" y="327.6" class="st59" width="20.2" height="8.2"/>
<rect x="275.3" y="318.7" class="st59" width="20.2" height="8.2"/>
<rect x="275.3" y="336.5" class="st59" width="20.2" height="8.2"/>
<rect x="188.8" y="336.5" class="st59" width="20.2" height="8.2"/>
<rect x="210.4" y="336.5" class="st59" width="20.2" height="8.2"/>
<rect x="253.7" y="337.3" class="st57" width="20.2" height="8.2"/>
<rect x="253.7" y="336.5" class="st59" width="20.2" height="8.2"/>
<rect x="232.1" y="336.5" class="st59" width="20.2" height="8.2"/>
<rect x="318.6" y="318.7" class="st59" width="20.2" height="8.2"/>
<rect x="318.6" y="309.8" class="st59" width="20.2" height="8.2"/>
<rect x="318.6" y="327.6" class="st59" width="20.2" height="8.2"/>
<rect x="102.3" y="345.4" class="st59" width="20.2" height="8.2"/>
<rect x="318.6" y="336.5" class="st59" width="20.2" height="8.2"/>
<rect x="318.6" y="345.4" class="st59" width="20.2" height="8.2"/>
<rect x="275.3" y="309.8" class="st59" width="20.2" height="8.2"/>
<rect x="253.7" y="309.8" class="st59" width="20.2" height="8.2"/>
<rect x="297" y="336.5" class="st59" width="20.2" height="8.2"/>
<rect x="232.1" y="309.8" class="st59" width="20.2" height="8.2"/>
<rect x="297" y="309.8" class="st59" width="20.2" height="8.2"/>
<rect x="297" y="327.6" class="st59" width="20.2" height="8.2"/>
<rect x="297" y="318.7" class="st59" width="20.2" height="8.2"/>
<rect x="210.4" y="309.8" class="st59" width="20.2" height="8.2"/>
<rect x="102.3" y="318.7" class="st59" width="20.2" height="8.2"/>
<rect x="102.3" y="336.5" class="st59" width="20.2" height="8.2"/>
<rect x="102.3" y="327.6" class="st59" width="20.2" height="8.2"/>
<rect x="102.3" y="309.8" class="st59" width="20.2" height="8.2"/>
<rect x="123.9" y="309.8" class="st59" width="20.2" height="8.2"/>
<rect x="167.2" y="309.8" class="st59" width="20.2" height="8.2"/>
<rect x="188.8" y="309.8" class="st59" width="20.2" height="8.2"/>
<rect x="145.6" y="309.8" class="st59" width="20.2" height="8.2"/>
<rect x="253.7" y="345.4" class="st59" width="20.2" height="8.2"/>
<linearGradient id="SVGID_47_" gradientUnits="userSpaceOnUse" x1="87.16" y1="159.117" x2="354" y2="159.117" gradientTransform="matrix(1 0 0 -1 0 480.3755)">
	<stop  offset="0" style="stop-color:#F9F9F8"/>
	<stop  offset="0.67" style="stop-color:#DEE1E4"/>
</linearGradient>
<path class="st60" d="M354,302.5c-53.7,1.5-86.8,6.1-107,9.9c-37.9,7.2-47.3,14.9-93.1,21.6c-25.9,3.8-50.7,5.3-66.7,6v-37.6
	L354,302.5z"/>
<path class="st32" d="M183.8,358.8h73.6c4.9,0,8.9,1.9,8.9,4.3v20c0,2.4-4,4.3-8.9,4.3h-73.6c-4.9,0-8.9-1.9-8.9-4.3v-20
	C174.9,360.7,178.9,358.8,183.8,358.8z"/>
<g>
	<defs>
		<path id="SVGID_48_" d="M183.8,358.8h73.6c4.9,0,8.9,1.9,8.9,4.3v20c0,2.4-4,4.3-8.9,4.3h-73.6c-4.9,0-8.9-1.9-8.9-4.3v-20
			C174.9,360.7,178.9,358.8,183.8,358.8z"/>
	</defs>
	<clipPath id="SVGID_49_">
		<use xlink:href="#SVGID_48_"  style="overflow:visible;"/>
	</clipPath>
	<g class="st61">
		
			<linearGradient id="SVGID_50_" gradientUnits="userSpaceOnUse" x1="174.9003" y1="106.2149" x2="266.2597" y2="106.2149" gradientTransform="matrix(1 0 0 -1 0 480.3755)">
			<stop  offset="0" style="stop-color:#C1C7D0"/>
			<stop  offset="1" style="stop-color:#DEE1E4"/>
		</linearGradient>
		<path class="st62" d="M183.8,359.9h73.6c4.9,0,8.9,1.9,8.9,4.3v20c0,2.4-4,4.3-8.9,4.3h-73.6c-4.9,0-8.9-1.9-8.9-4.3v-20
			C174.9,361.8,178.9,359.9,183.8,359.9z"/>
	</g>
</g>
<circle class="st63" cx="220.5" cy="119.3" r="3.7"/>
<rect x="101.6" y="137" class="st64" width="24.7" height="151"/>
<linearGradient id="SVGID_51_" gradientUnits="userSpaceOnUse" x1="11.34" y1="163.9378" x2="100.42" y2="163.9378" gradientTransform="matrix(1 0 0 -1 0 480.3755)">
	<stop  offset="0.33" style="stop-color:#FF991F"/>
	<stop  offset="1" style="stop-color:#FFC400"/>
</linearGradient>
<path class="st65" d="M100.4,282.4H11.3l13.4,60c0,4.4,14,8,31.2,8s31.2-3.6,31.2-8c0,0,0-0.1,0-0.1L100.4,282.4z"/>
<linearGradient id="SVGID_52_" gradientUnits="userSpaceOnUse" x1="21.2988" y1="158.0813" x2="144.4888" y2="149.2213" gradientTransform="matrix(1 0 0 -1 0 480.3755)">
	<stop  offset="8.000000e-02" style="stop-color:#FF8B00;stop-opacity:0"/>
	<stop  offset="0.14" style="stop-color:#FF8B00;stop-opacity:2.000000e-02"/>
	<stop  offset="0.22" style="stop-color:#FF8B00;stop-opacity:8.000000e-02"/>
	<stop  offset="0.3" style="stop-color:#FF8B00;stop-opacity:0.19"/>
	<stop  offset="0.39" style="stop-color:#FF8B00;stop-opacity:0.33"/>
	<stop  offset="0.49" style="stop-color:#FF8B00;stop-opacity:0.51"/>
	<stop  offset="0.59" style="stop-color:#FF8B00;stop-opacity:0.74"/>
	<stop  offset="0.69" style="stop-color:#FF8B00"/>
	<stop  offset="0.7" style="stop-color:#FF8B00"/>
</linearGradient>
<path class="st66" d="M24.7,342.5c0,4.4,14,8,31.2,8s31.2-3.6,31.2-8c0,0,0-0.1,0-0.1l0,0c-1-6.5-4.1-12.6-8.9-17.1
	c-6.8-6.5-11.4-4.2-21.3-11.3c-3.6-2.6-10-7.3-13-14c-12.3-0.6-22.8-2-29.6-4L24.7,342.5z"/>
<path class="st67" d="M97.4,296.2l3.1-13.7H11.3l3,13.4c6.8,2,17.3,3.4,29.6,4c4.1,0.2,8.5,0.3,13,0.3
	C73.4,300.1,88.1,298.5,97.4,296.2z"/>
<ellipse transform="matrix(2.618018e-03 -1 1 2.618018e-03 -229.6758 342.4935)" class="st54" cx="56.9" cy="286.4" rx="9.7" ry="50.8"/>
<ellipse transform="matrix(2.618018e-03 -1 1 2.618018e-03 -229.4953 342.3135)" class="st54" cx="56.9" cy="286.2" rx="9.7" ry="50.8"/>
<ellipse transform="matrix(2.618018e-03 -1 1 2.618018e-03 -229.3148 342.1335)" class="st54" cx="56.9" cy="286" rx="9.7" ry="50.8"/>
<ellipse transform="matrix(2.618018e-03 -1 1 2.618018e-03 -229.1244 341.9636)" class="st54" cx="56.9" cy="285.8" rx="9.7" ry="50.8"/>
<ellipse transform="matrix(2.618018e-03 -1 1 2.618018e-03 -228.944 341.7836)" class="st54" cx="56.9" cy="285.7" rx="9.7" ry="50.8"/>
<ellipse transform="matrix(2.618018e-03 -1 1 2.618018e-03 -228.7635 341.6035)" class="st54" cx="56.9" cy="285.5" rx="9.7" ry="50.8"/>
<ellipse transform="matrix(2.618018e-03 -1 1 2.618018e-03 -228.5929 341.4135)" class="st54" cx="56.9" cy="285.3" rx="9.7" ry="50.8"/>
<ellipse transform="matrix(2.618018e-03 -1 1 2.618018e-03 -228.4125 341.2335)" class="st54" cx="56.9" cy="285.1" rx="9.7" ry="50.8"/>
<ellipse transform="matrix(2.618018e-03 -1 1 2.618018e-03 -228.222 341.0436)" class="st54" cx="56.9" cy="284.9" rx="9.7" ry="50.8"/>
<ellipse transform="matrix(2.618018e-03 -1 1 2.618018e-03 -228.0316 340.8736)" class="st54" cx="56.9" cy="284.8" rx="9.7" ry="50.8"/>
<ellipse transform="matrix(2.618018e-03 -1 1 2.618018e-03 -227.8511 340.6936)" class="st54" cx="56.9" cy="284.6" rx="9.7" ry="50.8"/>
<ellipse transform="matrix(2.618018e-03 -1 1 2.618018e-03 -227.6706 340.5135)" class="st54" cx="56.9" cy="284.4" rx="9.7" ry="50.8"/>
<ellipse transform="matrix(2.618018e-03 -1 1 2.618018e-03 -227.4901 340.3336)" class="st54" cx="56.9" cy="284.2" rx="9.7" ry="50.8"/>
<ellipse transform="matrix(2.618018e-03 -1 1 2.618018e-03 -227.3196 340.1436)" class="st54" cx="56.9" cy="284" rx="9.7" ry="50.8"/>
<ellipse transform="matrix(2.618018e-03 -1 1 2.618018e-03 -227.1391 339.9636)" class="st54" cx="56.9" cy="283.8" rx="9.7" ry="50.8"/>
<ellipse transform="matrix(2.618018e-03 -1 1 2.618018e-03 -226.9487 339.7935)" class="st54" cx="56.9" cy="283.7" rx="9.7" ry="50.8"/>
<ellipse transform="matrix(2.618018e-03 -1 1 2.618018e-03 -226.7582 339.6035)" class="st54" cx="56.9" cy="283.5" rx="9.7" ry="50.8"/>
<ellipse transform="matrix(2.618018e-03 -1 1 2.618018e-03 -226.5778 339.4236)" class="st54" cx="56.9" cy="283.3" rx="9.7" ry="50.8"/>
<ellipse transform="matrix(2.618018e-03 -1 1 2.618018e-03 -226.3973 339.2436)" class="st54" cx="56.9" cy="283.1" rx="9.7" ry="50.8"/>
<ellipse transform="matrix(2.618018e-03 -1 1 2.618018e-03 -226.2267 339.0536)" class="st54" cx="56.9" cy="282.9" rx="9.7" ry="50.8"/>
<ellipse transform="matrix(2.618018e-03 -1 1 2.618018e-03 -226.0463 338.8735)" class="st54" cx="56.9" cy="282.8" rx="9.7" ry="50.8"/>
<ellipse transform="matrix(2.618018e-03 -1 1 2.618018e-03 -225.8558 338.7036)" class="st54" cx="56.9" cy="282.6" rx="9.7" ry="50.8"/>
<ellipse transform="matrix(2.618018e-03 -1 1 2.618018e-03 -225.6754 338.5236)" class="st54" cx="56.9" cy="282.4" rx="9.7" ry="50.8"/>
<ellipse transform="matrix(2.618018e-03 -1 1 2.618018e-03 -225.4949 338.3436)" class="st54" cx="56.9" cy="282.2" rx="9.7" ry="50.8"/>
<ellipse transform="matrix(2.618018e-03 -1 1 2.618018e-03 -225.3145 338.1635)" class="st54" cx="56.9" cy="282" rx="9.7" ry="50.8"/>
<ellipse transform="matrix(2.618018e-03 -1 1 2.618018e-03 -225.1339 337.9636)" class="st54" cx="56.9" cy="281.8" rx="9.7" ry="50.8"/>
<ellipse transform="matrix(2.618018e-03 -1 1 2.618018e-03 -224.9534 337.7835)" class="st54" cx="56.9" cy="281.7" rx="9.7" ry="50.8"/>
<ellipse transform="matrix(2.618018e-03 -1 1 2.618018e-03 -224.763 337.6136)" class="st54" cx="56.9" cy="281.5" rx="9.7" ry="50.8"/>
<ellipse transform="matrix(2.618018e-03 -1 1 2.618018e-03 -224.5825 337.4336)" class="st54" cx="56.9" cy="281.3" rx="9.7" ry="50.8"/>
<ellipse transform="matrix(2.618018e-03 -1 1 2.618018e-03 -224.4021 337.2536)" class="st54" cx="56.9" cy="281.1" rx="9.7" ry="50.8"/>
<ellipse transform="matrix(2.618018e-03 -1 1 2.618018e-03 -224.2216 337.0735)" class="st54" cx="56.9" cy="280.9" rx="9.7" ry="50.8"/>
<ellipse transform="matrix(2.618018e-03 -1 1 2.618018e-03 -224.0511 336.8835)" class="st54" cx="56.9" cy="280.8" rx="9.7" ry="50.8"/>
<ellipse transform="matrix(2.618018e-03 -1 1 2.618018e-03 -223.8706 336.7036)" class="st54" cx="56.9" cy="280.6" rx="9.7" ry="50.8"/>
<ellipse transform="matrix(2.618018e-03 -1 1 2.618018e-03 -223.6801 336.5336)" class="st54" cx="56.9" cy="280.4" rx="9.7" ry="50.8"/>
<ellipse transform="matrix(2.618018e-03 -1 1 2.618018e-03 -223.4897 336.3436)" class="st54" cx="56.9" cy="280.2" rx="9.7" ry="50.8"/>
<ellipse transform="matrix(2.618018e-03 -1 1 2.618018e-03 -223.3092 336.1636)" class="st54" cx="56.9" cy="280" rx="9.7" ry="50.8"/>
<ellipse transform="matrix(2.618018e-03 -1 1 2.618018e-03 -223.1287 335.9836)" class="st54" cx="56.9" cy="279.8" rx="9.7" ry="50.8"/>
<ellipse transform="matrix(2.618018e-03 -1 1 2.618018e-03 -222.9582 335.7935)" class="st54" cx="56.9" cy="279.7" rx="9.7" ry="50.8"/>
<ellipse transform="matrix(2.618018e-03 -1 1 2.618018e-03 -222.7777 335.6136)" class="st54" cx="56.9" cy="279.5" rx="9.7" ry="50.8"/>
<ellipse transform="matrix(2.618018e-03 -1 1 2.618018e-03 -222.5973 335.4336)" class="st54" cx="56.9" cy="279.3" rx="9.7" ry="50.8"/>
<ellipse transform="matrix(2.618018e-03 -1 1 2.618018e-03 -222.4068 335.2636)" class="st54" cx="56.9" cy="279.1" rx="9.7" ry="50.8"/>
<ellipse transform="matrix(2.618018e-03 -1 1 2.618018e-03 -222.2264 335.0836)" class="st54" cx="56.9" cy="278.9" rx="9.7" ry="50.8"/>
<ellipse transform="matrix(2.618018e-03 -1 1 2.618018e-03 -222.0359 334.8936)" class="st54" cx="56.9" cy="278.8" rx="9.7" ry="50.8"/>
<ellipse transform="matrix(2.618018e-03 -1 1 2.618018e-03 -221.8654 334.7036)" class="st54" cx="56.9" cy="278.6" rx="9.7" ry="50.8"/>
<ellipse transform="matrix(2.618018e-03 -1 1 2.618018e-03 -221.6849 334.5236)" class="st54" cx="56.9" cy="278.4" rx="9.7" ry="50.8"/>
<ellipse transform="matrix(2.618018e-03 -1 1 2.618018e-03 -221.5044 334.3436)" class="st54" cx="56.9" cy="278.2" rx="9.7" ry="50.8"/>
<ellipse transform="matrix(2.618018e-03 -1 1 2.618018e-03 -221.314 334.1736)" class="st54" cx="56.9" cy="278" rx="9.7" ry="50.8"/>
<ellipse transform="matrix(2.618018e-03 -1 1 2.618018e-03 -221.1335 333.9936)" class="st54" cx="56.9" cy="277.9" rx="9.7" ry="50.8"/>
<ellipse transform="matrix(2.618018e-03 -1 1 2.618018e-03 -220.953 333.8136)" class="st54" cx="56.9" cy="277.7" rx="9.7" ry="50.8"/>
<ellipse transform="matrix(2.618018e-03 -1 1 2.618018e-03 -220.7825 333.6235)" class="st54" cx="56.9" cy="277.5" rx="9.7" ry="50.8"/>
<ellipse transform="matrix(2.618018e-03 -1 1 2.618018e-03 -220.602 333.4435)" class="st54" cx="56.9" cy="277.3" rx="9.7" ry="50.8"/>
<path class="st54" d="M107.7,277.3c0,0,0-0.1,0-0.1c0-5.4-22.8-9.7-50.8-9.6S6,272,6.1,277.4c0,0,0,0.1,0,0.1s0,0.1,0,0.1s0,0,0,0.1
	s0,0.1,0,0.1s0,0.1,0,0.1s0,0.1,0,0.1s0,0.1,0,0.1s0,0.1,0,0.1s0,0.1,0,0.1s0,0.1,0,0.1s0,0.1,0,0.1s0,0.1,0,0.1s0,0.1,0,0.1
	s0,0.1,0,0.1s0,0,0,0.1s0,0.1,0,0.1s0,0,0,0.1s0,0.1,0,0.1s0,0.1,0,0.1s0,0.1,0,0.1s0,0.1,0,0.1s0,0.1,0,0.1s0,0.1,0,0.1
	s0,0.1,0,0.1s0,0.1,0,0.1s0,0.1,0,0.1s0,0.1,0,0.1s0,0.1,0,0.1s0,0,0,0.1s0,0.1,0,0.1s0,0.1,0,0.1s0,0.1,0,0.1s0,0.1,0,0.1
	s0,0.1,0,0.1s0,0.1,0,0.1s0,0.1,0,0.1s0,0.1,0,0.1s0,0.1,0,0.1s0,0.1,0,0.1s0,0.1,0,0.1s0,0,0,0.1s0,0.1,0,0.1s0,0.1,0,0.1
	s0,0.1,0,0.1s0,0.1,0,0.1s0,0.1,0,0.1s0,0.1,0,0.1s0,0.1,0,0.1s0,0.1,0,0.1s0,0.1,0,0.1s0,0.1,0,0.1s0,0.1,0,0.1s0,0,0,0.1
	s0,0.1,0,0.1s0,0.1,0,0.1s0,0.1,0,0.1s0,0.1,0,0.1s0,0.1,0,0.1s0,0.1,0,0.1s0,0.1,0,0.1s0,0.1,0,0.1s0,0.1,0,0.1s0,0.1,0,0.1
	s0,0.1,0,0.1s0,0,0,0.1s0,0.1,0,0.1s0,0.1,0,0.1s0,0.1,0,0.1s0,0.1,0,0.1s0,0.1,0,0.1s0,0.1,0,0.1s0,0.1,0,0.1s0,0.1,0,0.1
	s0,0.1,0,0.1s0,0.1,0,0.1s0,0.1,0,0.1s0,0,0,0.1s0,0.1,0,0.1s0,0.1,0,0.1s0,0.1,0,0.1s0,0.1,0,0.1s0,0.1,0,0.1s0,0.1,0,0.1
	s0,0.1,0,0.1s0,0.1,0,0.1s0,0.1,0,0.1s0,0.1,0,0.1s0,0.1,0,0.1s0,0,0,0.1s0,0.1,0,0.1s0,0.1,0,0.1s0,0.1,0,0.1s0,0.1,0,0.1
	s0,0.1,0,0.1s0,0.1,0,0.1s0,0.1,0,0.1s0,0.1,0,0.1s0,0.1,0,0.1s0,0.1,0,0.1s0,0.1,0,0.1c0,5.4,22.8,9.7,50.8,9.6s50.8-4.5,50.8-9.9
	c0,0,0,0,0-0.1s0-0.1,0-0.1s0-0.1,0-0.1s0-0.1,0-0.1s0-0.1,0-0.1s0-0.1,0-0.1s0-0.1,0-0.1s0-0.1,0-0.1s0-0.1,0-0.1s0-0.1,0-0.1
	s0-0.1,0-0.1s0-0.1,0-0.1s0,0,0-0.1s0-0.1,0-0.1s0-0.1,0-0.1s0-0.1,0-0.1s0-0.1,0-0.1s0-0.1,0-0.1s0-0.1,0-0.1s0-0.1,0-0.1
	s0-0.1,0-0.1s0-0.1,0-0.1s0-0.1,0-0.1s0-0.1,0-0.1s0,0,0-0.1s0-0.1,0-0.1s0-0.1,0-0.1s0-0.1,0-0.1s0-0.1,0-0.1s0-0.1,0-0.1
	s0-0.1,0-0.1s0-0.1,0-0.1s0-0.1,0-0.1s0-0.1,0-0.1s0-0.1,0-0.1s0-0.1,0-0.1s0,0,0-0.1s0-0.1,0-0.1s0,0,0-0.1s0-0.1,0-0.1
	s0-0.1,0-0.1s0-0.1,0-0.1s0-0.1,0-0.1s0-0.1,0-0.1s0-0.1,0-0.1s0-0.1,0-0.1s0-0.1,0-0.1s0-0.1,0-0.1s0-0.1,0-0.1s0-0.1,0-0.1
	s0,0,0-0.1s0-0.1,0-0.1s0-0.1,0-0.1s0-0.1,0-0.1s0-0.1,0-0.1s0-0.1,0-0.1s0-0.1,0-0.1s0-0.1,0-0.1s0-0.1,0-0.1s0-0.1,0-0.1
	s0-0.1,0-0.1s0-0.1,0-0.1s0,0,0-0.1s0-0.1,0-0.1s0-0.1,0-0.1s0-0.1,0-0.1s0-0.1,0-0.1s0-0.1,0-0.1s0-0.1,0-0.1s0-0.1,0-0.1
	s0-0.1,0-0.1s0-0.1,0-0.1s0-0.1,0-0.1s0-0.1,0-0.1s0,0,0-0.1s0-0.1,0-0.1s0-0.1,0-0.1s0-0.1,0-0.1s0-0.1,0-0.1s0-0.1,0-0.1
	s0-0.1,0-0.1s0-0.1,0-0.1s0-0.1,0-0.1s0-0.1,0-0.1s0-0.1,0-0.1s0-0.1,0-0.1s0,0,0-0.1s0-0.1,0-0.1s0-0.1,0-0.1s0-0.1,0-0.1
	s0-0.1,0-0.1s0-0.1,0-0.1s0-0.1,0-0.1s0-0.1,0-0.1s0-0.1,0-0.1s0-0.1,0-0.1s0-0.1,0-0.1S107.7,277.4,107.7,277.3
	C107.7,277.3,107.7,277.3,107.7,277.3z"/>
<ellipse transform="matrix(2.618018e-03 -1 1 2.618018e-03 -220.4024 333.8844)" class="st67" cx="57.2" cy="277.4" rx="9.3" ry="48.8"/>
<g>
	<defs>
		
			<ellipse id="SVGID_53_" transform="matrix(2.618018e-03 -1 1 2.618018e-03 -220.4024 333.8844)" cx="57.2" cy="277.4" rx="9.3" ry="48.8"/>
	</defs>
	<clipPath id="SVGID_54_">
		<use xlink:href="#SVGID_53_"  style="overflow:visible;"/>
	</clipPath>
	<g class="st68">
		
			<ellipse transform="matrix(2.618018e-03 -1 1 2.618018e-03 -228.5837 342.0244)" class="st39" cx="57.2" cy="285.6" rx="9.3" ry="48.8"/>
	</g>
</g>
<linearGradient id="SVGID_55_" gradientUnits="userSpaceOnUse" x1="98.0883" y1="158.5867" x2="135.2545" y2="158.5867" gradientTransform="matrix(1 0 0 -1 0 480.3755)">
	<stop  offset="0" style="stop-color:#DEE1E4"/>
	<stop  offset="1" style="stop-color:#C1C7D0"/>
</linearGradient>
<path class="st69" d="M134.8,336.4c-0.1,0-0.2,0-0.3-0.1l-36.2-28.3c-0.2-0.2-0.3-0.5-0.1-0.7c0,0,0,0,0,0c0.2-0.2,0.5-0.3,0.7-0.1
	c0,0,0,0,0,0l36.2,28.2c0.2,0.2,0.3,0.5,0.1,0.7C135.1,336.3,134.9,336.4,134.8,336.4z"/>
<linearGradient id="SVGID_56_" gradientUnits="userSpaceOnUse" x1="116.3363" y1="158.585" x2="153.5045" y2="158.585" gradientTransform="matrix(1 0 0 -1 0 480.3755)">
	<stop  offset="0" style="stop-color:#DEE1E4"/>
	<stop  offset="1" style="stop-color:#C1C7D0"/>
</linearGradient>
<path class="st70" d="M153,336.4c-0.1,0-0.2,0-0.3-0.1l-36.2-28.3c-0.2-0.2-0.3-0.5-0.1-0.7c0.2-0.2,0.5-0.3,0.7-0.1l36.2,28.2
	c0.2,0.2,0.3,0.5,0.1,0.7C153.3,336.3,153.2,336.4,153,336.4z"/>
<path class="st71" d="M153.5,335.8l-1.5-7l0,0c0-0.1,0-0.2-0.1-0.2l-26.3-120.8c-0.1-0.3-0.4-0.5-0.8-0.5c-0.2,0-0.3,0.1-0.4,0.3
	c-0.1,0.1-0.1,0.3-0.1,0.5l1.8,8.2h-16.8l-1.8-8.4c0-0.2-0.1-0.3-0.3-0.4c-0.1-0.1-0.3-0.1-0.5-0.1c-0.3,0.1-0.5,0.4-0.5,0.8
	L134.1,336c0.1,0.3,0.3,0.5,0.6,0.5h0.1c0.3-0.1,0.6-0.4,0.5-0.8l-1.4-6.4h16.8l1.4,6.6c0.1,0.3,0.3,0.5,0.6,0.5h0.1
	c0.2,0,0.3-0.1,0.4-0.3C153.5,336.1,153.5,335.9,153.5,335.8z M132.2,244.2h-16.8l-5.8-26.7h16.8L132.2,244.2z M138.3,272.2h-16.8
	l-5.8-26.7h16.8L138.3,272.2z M144.4,300.2h-16.8l-5.8-26.8h16.8L144.4,300.2z M150.5,328.2h-16.8l-5.8-26.8h16.8L150.5,328.2z"/>
<linearGradient id="SVGID_57_" gradientUnits="userSpaceOnUse" x1="-12.8181" y1="313.1313" x2="57.4952" y2="394.5082" gradientTransform="matrix(0.9974 7.271600e-02 7.271600e-02 -0.9974 33.1563 580.2025)">
	<stop  offset="0" style="stop-color:#008DA6"/>
	<stop  offset="1" style="stop-color:#00B8D9"/>
</linearGradient>
<path class="st72" d="M104.7,232.7c-4.6,5-8.5,5.1-9.3,9.1c-0.9,4.7,4.1,6.6,4.6,11.8c1,10.8-18.6,20.4-20.7,21.5
	c-9.9,4.7-22.5,7.1-24.2,3.7c-1.6-3.1,8.4-7.3,8.6-15.9c0.2-9.9-12.8-14.8-10.8-22.1c1.1-4.1,5.3-3,8.5-8c6.1-9.5-3.6-22.2,1.7-26.9
	c3.3-3,7.9,1.2,12-1.9c5.1-3.9,0.1-12.1,4.8-21.5c3.7-7.4,12.5-13.7,18.3-11.6c4.8,1.7,6.8,8.7,7.2,13.2c0.6,8.2-4.6,11.2-2.7,17
	c1.7,5.2,6.2,4.2,8.4,9.5C114,217.5,109.8,227.1,104.7,232.7z"/>
<linearGradient id="SVGID_58_" gradientUnits="userSpaceOnUse" x1="29.537" y1="195.1338" x2="29.537" y2="307.4352" gradientTransform="matrix(1 0 0 -1 0 480.3755)">
	<stop  offset="0" style="stop-color:#008DA6"/>
	<stop  offset="1" style="stop-color:#00B8D9"/>
</linearGradient>
<path class="st73" d="M7,234.3c4.2,5.3,8.1,5.8,8.6,9.8c0.6,4.8-4.6,6.2-5.5,11.5c-1.8,10.7,17,21.7,19.1,22.9
	c9.5,5.4,21.9,8.7,23.9,5.5c1.8-3-7.8-7.9-7.4-16.5c0.5-9.9,13.8-13.8,12.4-21.2c-0.8-4.2-5-3.4-7.9-8.6c-5.4-9.9,5.2-21.9,0.2-27
	c-3.1-3.2-7.9,0.6-11.8-2.8c-4.8-4.2,0.8-12.1-3.3-21.8c-3.2-7.6-11.4-14.6-17.4-12.9c-4.9,1.4-7.5,8.2-8.1,12.7
	c-1.2,8.2,3.8,11.5,1.4,17.2c-2.1,5-6.5,3.8-9.1,8.8C-1.2,218.5,2.3,228.4,7,234.3z"/>
<linearGradient id="SVGID_59_" gradientUnits="userSpaceOnUse" x1="56.8173" y1="213.4597" x2="96.1335" y2="213.4597" gradientTransform="matrix(1 0 0 -1 0 480.3755)">
	<stop  offset="0" style="stop-color:#00A3BF"/>
	<stop  offset="0.39" style="stop-color:#00A8C5"/>
	<stop  offset="0.92" style="stop-color:#00B5D6"/>
	<stop  offset="1" style="stop-color:#00B8D9"/>
</linearGradient>
<path class="st74" d="M83.7,274.3c-2.7,0.6-4-0.2-5.2,0.9c-1.4,1.4-0.1,3.1-1.1,5c-2.1,3.8-10.8,2.6-11.7,2.4
	c-4.3-0.7-9-2.8-8.9-4.2s4.4-0.5,6.4-3.3c2.3-3.2-0.9-7.8,1.4-9.8c1.3-1.1,2.4,0.2,4.6-0.7c4.2-1.8,3.8-8.2,6.7-8.5
	c1.8-0.2,2.3,2.2,4.4,2.1c2.6-0.1,2.8-4,6.5-6c2.9-1.6,7.2-1.7,8.7,0.3c1.2,1.6,0.3,4.4-0.6,6c-1.7,2.9-4.1,2.6-4.8,5
	c-0.6,2.1,1.1,2.8,0.6,5C90.2,271.4,86.7,273.6,83.7,274.3z"/>
<linearGradient id="SVGID_60_" gradientUnits="userSpaceOnUse" x1="-6.010429e-02" y1="295.7394" x2="-6.010429e-02" y2="420.2793" gradientTransform="matrix(0.9974 7.271600e-02 7.271600e-02 -0.9974 33.1563 580.2025)">
	<stop  offset="0" style="stop-color:#00B8D9"/>
	<stop  offset="1" style="stop-color:#79E2F2"/>
</linearGradient>
<path class="st75" d="M78.4,227.5c0.8,6,4,5.3,5.6,11.9c3.2,13.2-6.8,26-11.2,31.5c-6,7.7-11.8,15.1-19,14.3
	c-8.5-1-15.5-13.2-15.5-23.2c0-8,4.5-10.6,2.7-17.5c-1.9-7.6-9.4-8.3-9.5-14.1c-0.1-5.4,6.2-5.9,8.6-13.3c2.7-8.5-4.1-12.9-0.9-19.9
	c2.7-6.1,8.6-4.5,11.3-10.7c3.1-7-3.1-11.9,0.1-18.4c2.3-4.6,8.1-7.2,12.9-7c8.3,0.2,15,8.4,15.7,15.4c0.7,7.3-5.6,11.4-3.3,16.9
	c2.1,4.8,7.7,3.3,9.8,7.7C89.2,207.9,76.7,215.4,78.4,227.5z"/>
<path class="st18" d="M63.1,182.7l1.6-21.6c-0.4,0-0.7-0.1-1.1-0.1s-0.6,0-0.9,0l-1.6,21.7l-9.2-16.5c-0.5,0.6-0.9,1.2-1.2,1.8
	c0,0,0,0.1,0,0.1l10.2,18.2l-1.5,21.2L48.9,189c-0.5,0.5-1,1-1.5,1.4L59,211.3l-2.7,36.4L39.8,218c-0.3,0.8-0.7,1.5-1.1,2.2
	l17.4,31.2l-2.2,30.8L39.2,256c-0.3,1-0.5,1.9-0.7,2.9l14.6,26.1l0.8,0.1c0.6,0.1,1.3,0.1,1.9,0l24.9-26c0.9-1.7,1.7-3.5,2.3-5.3
	l-27.1,28.3l2.3-31.4l20.6-21.5c-0.2-0.6-0.3-1.2-0.4-1.8c0-0.2,0-0.4-0.1-0.7l-20,20.8l2.7-36.9l15.6-16.3
	c-0.3-0.4-0.5-0.8-0.6-1.3c-0.1-0.2-0.2-0.4-0.2-0.7l-14.5,15.1l1.6-21.8l14.6-15.2c-0.3-0.6-0.7-1.2-1.1-1.8L63.1,182.7z"/>
<circle class="st76" cx="107.8" cy="131.8" r="1.7"/>
<circle class="st77" cx="113.4" cy="131.8" r="1.7"/>
<circle class="st18" cx="119" cy="131.8" r="1.7"/>
<linearGradient id="SVGID_61_" gradientUnits="userSpaceOnUse" x1="-70.7748" y1="561.6402" x2="-26.7248" y2="561.6402" gradientTransform="matrix(1.09 0.17 0.16 -1.02 129.0192 674.8234)">
	<stop  offset="0" style="stop-color:#0052CC"/>
	<stop  offset="1" style="stop-color:#0049B0"/>
</linearGradient>
<path class="st78" d="M157.6,61.4c5.5,0.8,10.7,3,15,6.5c10.5,7.9,13,19.7,14.2,25.3c3.4,15.6-1.5,28.4-4.2,34.2
	c2-7.6,0.9-12.7-1.5-16.2s-5.4-4.2-8.3-7.9c-3.5-4.5-4.2-10.1-3.5-15.9c-2.7-1.1-5.2-2.5-7.6-4.1c-7.4-5.2-12.9-12.6-15.7-21.2
	C149.9,61,153.8,60.8,157.6,61.4z"/>
<linearGradient id="SVGID_62_" gradientUnits="userSpaceOnUse" x1="338.23" y1="220.3667" x2="380.31" y2="220.3667" gradientTransform="matrix(1 0 0 -1 0 480.3755)">
	<stop  offset="0" style="stop-color:#00C7E5"/>
	<stop  offset="1" style="stop-color:#00A3BF"/>
</linearGradient>
<path class="st79" d="M363.8,267.7c-6.9,0-12.7-5.2-13.4-12.1c5.8-0.8,9.8-6.2,9-12c-0.8-5.8-6.2-9.8-12-9s-9.8,6.2-9,12
	c0.7,4.7,4.3,8.3,9,9c0.7,8.5,7.9,15.1,16.4,15.1c7.4,0,13.5,6.1,13.5,13.5c0.1,0.8,0.8,1.4,1.7,1.3c0.7-0.1,1.2-0.6,1.3-1.3
	C380.3,275.1,372.9,267.7,363.8,267.7z M341.2,245.1c0-4.2,3.4-7.6,7.6-7.6s7.6,3.4,7.6,7.6c0,4.2-3.4,7.6-7.6,7.6c0,0,0,0,0,0
	C344.6,252.7,341.3,249.3,341.2,245.1L341.2,245.1z"/>
<linearGradient id="SVGID_63_" gradientUnits="userSpaceOnUse" x1="351.5729" y1="319.3488" x2="357.6729" y2="240.9587" gradientTransform="matrix(1 0 0 -1 0 480.3755)">
	<stop  offset="0" style="stop-color:#00C7E5"/>
	<stop  offset="1" style="stop-color:#00A3BF"/>
</linearGradient>
<path class="st80" d="M333.9,189.6c0,12,9.7,21.7,21.7,21.7c13.6,0,24.7,11.1,24.7,24.7c-0.1,0.8-0.8,1.4-1.7,1.3
	c-0.7-0.1-1.2-0.6-1.3-1.3c0-12-9.7-21.7-21.7-21.7c-13.6,0-24.7-11.1-24.7-24.7L333.9,189.6z"/>
<path class="st18" d="M412,312.6h-67.8l10.2,45.7c0,3.4,10.6,6.1,23.8,6.1s23.8-2.7,23.8-6.1v-0.1L412,312.6z"/>
<linearGradient id="SVGID_64_" gradientUnits="userSpaceOnUse" x1="345.5905" y1="145.7091" x2="430.2306" y2="110.2391" gradientTransform="matrix(1 0 0 -1 0 480.3755)">
	<stop  offset="0.14" style="stop-color:#008DA6;stop-opacity:0.5"/>
	<stop  offset="0.7" style="stop-color:#008DA6;stop-opacity:0"/>
</linearGradient>
<path class="st81" d="M387.1,356.9c-9.5-1.4-15.9-10.2-19.2-14.8c-7.4-10.2-4.9-15-11.7-21.9c-3.2-3.3-7.1-5.9-11.4-7.5h-0.7
	l10.2,45.7c0,3.4,10.6,6.1,23.8,6.1s23.8-2.7,23.8-6.1v-0.1l0.9-4C400,353.4,394.9,358.1,387.1,356.9z"/>
<ellipse transform="matrix(1 -2.617982e-03 2.617982e-03 1 -0.8168 0.991)" class="st38" cx="378.1" cy="312.5" rx="33.9" ry="6.5"/>
<g>
	<defs>
		
			<ellipse id="SVGID_65_" transform="matrix(1 -2.617982e-03 2.617982e-03 1 -0.8168 0.991)" cx="378.1" cy="312.5" rx="33.9" ry="6.5"/>
	</defs>
	<clipPath id="SVGID_66_">
		<use xlink:href="#SVGID_65_"  style="overflow:visible;"/>
	</clipPath>
	<g class="st82">
		
			<ellipse transform="matrix(1 -2.617982e-03 2.617982e-03 1 -0.8317 0.991)" class="st39" cx="378.1" cy="318.2" rx="33.9" ry="6.5"/>
	</g>
</g>
<linearGradient id="SVGID_67_" gradientUnits="userSpaceOnUse" x1="340.88" y1="282.4703" x2="416.88" y2="282.4703" gradientTransform="matrix(1 0 0 -1 0 480.3755)">
	<stop  offset="0" style="stop-color:#00C7E5"/>
	<stop  offset="1" style="stop-color:#00A3BF"/>
</linearGradient>
<path class="st83" d="M416.9,121c0-21-17-38-38-38c-21,0-38,17-38,38c0,20.4,16.1,37.1,36.5,37.9v152c-0.1,0.8,0.5,1.6,1.3,1.7
	s1.6-0.5,1.7-1.3c0-0.1,0-0.2,0-0.3V159C400.7,158.2,416.9,141.5,416.9,121z M378.9,156c-19.3,0-35-15.7-35-35s15.7-35,35-35
	s35,15.7,35,35C413.9,140.4,398.2,156,378.9,156L378.9,156z"/>
<path class="st18" d="M374.9,253c4.1,4.1,3.8,11,3.8,11s-6.9,0.2-11-3.9c-4.1-4.1-3.8-11.1-3.8-11.1S370.8,248.9,374.9,253z"/>
<path class="st84" d="M363.9,249.1c0,0.5,0,1,0,1.5l13.3,13.4c0.5,0,1,0,1.5,0c0,0,0-0.6,0-1.5l-13.3-13.4
	C364.5,249.1,363.9,249.1,363.9,249.1z"/>
<linearGradient id="SVGID_68_" gradientUnits="userSpaceOnUse" x1="348.42" y1="359.3278" x2="409.26" y2="359.3278" gradientTransform="matrix(1 0 0 -1 0 480.3755)">
	<stop  offset="0" style="stop-color:#0049B0"/>
	<stop  offset="1" style="stop-color:#0052CC"/>
</linearGradient>
<circle class="st85" cx="378.8" cy="121" r="30.4"/>
<linearGradient id="SVGID_69_" gradientUnits="userSpaceOnUse" x1="343.35" y1="235.2578" x2="354.01" y2="235.2578" gradientTransform="matrix(1 0 0 -1 0 480.3755)">
	<stop  offset="0" style="stop-color:#FF991F"/>
	<stop  offset="0.29" style="stop-color:#FFA01A"/>
	<stop  offset="0.7" style="stop-color:#FFB20D"/>
	<stop  offset="1" style="stop-color:#FFC400"/>
</linearGradient>
<circle class="st86" cx="348.7" cy="245.1" r="5.3"/>
<path class="st18" d="M382.5,201.8c-4.1,4.1-3.8,11.1-3.8,11.1s6.9,0.2,11-3.9s3.8-11.1,3.8-11.1S386.5,197.6,382.5,201.8z"/>
<path class="st84" d="M393.5,197.8c0,0-0.6,0-1.4,0.1l-13.3,13.4c0,0.5,0,1,0,1.5c0,0,0.6,0,1.5-0.1l13.3-13.4
	C393.5,198.4,393.5,197.8,393.5,197.8z"/>
<path class="st18" d="M360.4,202.5c3.2,4.8,1.6,11.6,1.6,11.6s-6.8-1.1-10.1-5.9s-1.6-11.6-1.6-11.6S357.2,197.7,360.4,202.5z"/>
<path class="st84" d="M351.8,196.9c-0.9-0.2-1.4-0.3-1.4-0.3s-0.1,0.6-0.2,1.5l10.5,15.7c0.5,0.1,0.9,0.2,1.4,0.3
	c0,0,0.1-0.6,0.2-1.5L351.8,196.9z"/>
<path class="st18" d="M339.4,213.2c4.7-3.4,11.5-2,11.5-2s-0.9,6.9-5.6,10.2s-11.5,2-11.5,2S334.6,216.6,339.4,213.2z"/>
<path class="st84" d="M350.9,211.2c0,0-0.6-0.1-1.5-0.2L334,222c-0.1,0.5-0.2,0.9-0.3,1.4c0.5,0.1,1,0.2,1.5,0.2l15.4-11
	C350.7,212.1,350.8,211.7,350.9,211.2z"/>
<linearGradient id="SVGID_70_" gradientUnits="userSpaceOnUse" x1="378.8793" y1="179.3828" x2="409.3008" y2="179.3828" gradientTransform="matrix(1 0 0 -1 0 480.3755)">
	<stop  offset="0" style="stop-color:#00A3BF"/>
	<stop  offset="0.39" style="stop-color:#00A8C5"/>
	<stop  offset="0.92" style="stop-color:#00B5D6"/>
	<stop  offset="1" style="stop-color:#00B8D9"/>
</linearGradient>
<path class="st87" d="M401.5,308.3c8.4-8.5,7.8-22.8,7.8-22.8s-14.2-0.4-22.6,8.1s-7.8,22.8-7.8,22.8S393.1,316.8,401.5,308.3z"/>
<path class="st18" d="M409.3,285.6c0,0-0.5,0-1.4,0l-29,29.3c0,1,0,1.5,0,1.5s0.5,0,1.4,0l29-29.4
	C409.3,286.1,409.3,285.6,409.3,285.6z"/>
<linearGradient id="SVGID_71_" gradientUnits="userSpaceOnUse" x1="348.58" y1="194.6977" x2="379.205" y2="164.0727" gradientTransform="matrix(1 0 0 -1 0 480.3755)">
	<stop  offset="0" style="stop-color:#00B8D9"/>
	<stop  offset="8.000000e-02" style="stop-color:#00B5D6"/>
	<stop  offset="0.61" style="stop-color:#00A8C5"/>
	<stop  offset="1" style="stop-color:#00A3BF"/>
</linearGradient>
<path class="st88" d="M356.5,308.3c-8.4-8.5-7.8-22.8-7.8-22.8s14.2-0.4,22.6,8.1s7.8,22.8,7.8,22.8S364.9,316.8,356.5,308.3z"/>
<path class="st18" d="M348.7,285.6c0,0,0,0.5,0,1.4l29,29.4c0.9,0,1.4,0,1.4,0s0-0.5,0-1.5l-29-29.3
	C349.2,285.5,348.7,285.6,348.7,285.6z"/>
<path class="st71" d="M378,265.3c-0.1-0.1-0.2-0.2-0.4-0.2c-0.2,0-0.3,0-0.5,0.1c-0.1,0.1-0.2,0.2-0.3,0.3l-1.9,7h-16.8l1.8-6.8
	c0.1-0.3-0.1-0.6-0.5-0.6c-0.2,0-0.3,0-0.5,0.1c-0.1,0.1-0.2,0.2-0.3,0.3L332.4,366c0,0.1-0.1,0.1-0.1,0.2l0,0l-1.5,5.8
	c0,0.1,0,0.3,0.1,0.4c0.1,0.1,0.2,0.2,0.4,0.2h0.1c0.3,0,0.5-0.2,0.6-0.4l1.4-5.5h16.8l-1.3,5.3c0,0.1,0,0.3,0.1,0.4
	c0.1,0.1,0.2,0.2,0.4,0.2h0.1c0.3,0,0.6-0.2,0.6-0.4l27.9-106.5C378.1,265.6,378.1,265.4,378,265.3z M339.9,342.4l5.8-22.3h16.8
	l-5.8,22.3H339.9z M346,319.1l5.8-22.3h16.8l-5.8,22.3H346z M352.1,295.8l5.9-22.3h16.8l-5.8,22.3L352.1,295.8z M339.6,343.5h16.8
	l-5.8,22.3h-16.8L339.6,343.5z"/>
<path class="st19" d="M167.3,159.7L158,169l-4.6-4.6L142,175.7h41.3L167.3,159.7z M146.9,173.7l6.5-6.5l3.2,3.2l-2.8,2.8l-0.5,0.5
	L146.9,173.7z M159.4,170.4l7.9-7.9l11.1,11.2h-22.3L159.4,170.4z"/>
<circle class="st45" cx="113.8" cy="151.3" r="4.9"/>
<circle class="st45" cx="113.8" cy="165.7" r="4.9"/>
<linearGradient id="SVGID_72_" gradientUnits="userSpaceOnUse" x1="218.53" y1="361.0378" x2="222.54" y2="361.0378" gradientTransform="matrix(1 0 0 -1 0 480.3755)">
	<stop  offset="0" style="stop-color:#FFFFFF;stop-opacity:0.8"/>
	<stop  offset="7.000000e-02" style="stop-color:#FFFFFF;stop-opacity:0.68"/>
	<stop  offset="0.18" style="stop-color:#FFFFFF;stop-opacity:0.5"/>
	<stop  offset="0.31" style="stop-color:#FFFFFF;stop-opacity:0.35"/>
	<stop  offset="0.43" style="stop-color:#FFFFFF;stop-opacity:0.22"/>
	<stop  offset="0.56" style="stop-color:#FFFFFF;stop-opacity:0.12"/>
	<stop  offset="0.69" style="stop-color:#FFFFFF;stop-opacity:5.000000e-02"/>
	<stop  offset="0.83" style="stop-color:#FFFFFF;stop-opacity:1.000000e-02"/>
	<stop  offset="1" style="stop-color:#FFFFFF;stop-opacity:0"/>
</linearGradient>
<circle class="st89" cx="220.5" cy="119.3" r="2"/>
<rect x="287.9" y="186.1" class="st32" width="38.7" height="2"/>
<rect x="287.9" y="191.6" class="st32" width="38.7" height="2"/>
<rect x="287.9" y="197" class="st32" width="25.7" height="2"/>
<path class="st32" d="M213.9,181l-8.9,3.6c-1.1,0.4-1.6,1.7-1.2,2.7c0,0,0,0,0,0l3.6,8.9c0.4,1.1,1.7,1.6,2.7,1.2c0,0,0,0,0,0
	l2.2-0.9l2.6,1.6c0.4,0.2,0.9,0.1,1.1-0.3c0-0.1,0.1-0.1,0.1-0.2l0.7-3l2.2-0.9c1.1-0.4,1.6-1.7,1.2-2.8l-3.6-8.9
	C216.2,181,215,180.5,213.9,181z"/>
<path class="st32" d="M176.2,142.8l-8.9,3.6c-1.1,0.4-1.6,1.7-1.2,2.7c0,0,0,0,0,0l3.6,8.9c0.4,1.1,1.6,1.6,2.7,1.2c0,0,0,0,0,0
	l2.2-0.9l2.6,1.6c0.4,0.2,0.9,0.1,1.1-0.2c0-0.1,0.1-0.2,0.1-0.2l0.7-3l2.2-0.9c1.1-0.4,1.6-1.7,1.2-2.7c0,0,0,0,0,0L179,144
	C178.6,142.9,177.3,142.4,176.2,142.8z"/>
<linearGradient id="SVGID_73_" gradientUnits="userSpaceOnUse" x1="171.3265" y1="323.7872" x2="183.8765" y2="336.3372" gradientTransform="matrix(1 0 0 -1 0 480.3755)">
	<stop  offset="0" style="stop-color:#FF991F"/>
	<stop  offset="0.23" style="stop-color:#FFA01A"/>
	<stop  offset="0.56" style="stop-color:#FFB40C"/>
	<stop  offset="0.77" style="stop-color:#FFC400"/>
</linearGradient>
<path class="st90" d="M182.4,143.4h-9.6c-1.2,0-2.1,0.9-2.1,2.1c0,0,0,0,0,0v9.6c0,1.2,0.9,2.1,2.1,2.1c0,0,0,0,0,0h2.4l1.8,2.5
	c0.3,0.4,0.8,0.4,1.1,0.2c0.1,0,0.1-0.1,0.2-0.2l1.7-2.5h2.4c1.2,0,2.1-1,2.1-2.1v-9.6C184.5,144.4,183.5,143.5,182.4,143.4z"/>
<linearGradient id="SVGID_74_" gradientUnits="userSpaceOnUse" x1="209.0851" y1="285.6187" x2="221.6291" y2="298.1627" gradientTransform="matrix(1 0 0 -1 0 480.3755)">
	<stop  offset="0" style="stop-color:#FF991F"/>
	<stop  offset="0.22" style="stop-color:#FFA01A"/>
	<stop  offset="0.55" style="stop-color:#FFB40C"/>
	<stop  offset="0.76" style="stop-color:#FFC400"/>
</linearGradient>
<path class="st91" d="M220.1,181.6h-9.6c-1.2,0-2.1,0.9-2.1,2.1c0,0,0,0,0,0v9.6c0,1.2,0.9,2.1,2.1,2.1l0,0h2.4l1.8,2.5
	c0.3,0.4,0.8,0.4,1.1,0.2c0.1,0,0.1-0.1,0.2-0.2l1.8-2.5h2.4c1.2,0,2.1-0.9,2.1-2.1v-9.6C222.2,182.5,221.3,181.6,220.1,181.6
	L220.1,181.6z"/>
<path class="st92" d="M311.4,71.5h2.9c0,0.2-0.1,0.4-0.1,0.6c0,0.2,0,0.4,0.1,0.6c0,0.1,0.1,0.1,0.1,0.1l0.8,0.1
	c-0.1,0.3-0.3,0.6-0.5,0.9c-0.3,0.3-0.6,0.5-1,0.7c-0.6,0.3-1.2,0.4-1.8,0.3c-0.8-0.1-1.5-0.6-2-1.3c0.2-0.1,0.4-0.1,0.5-0.2
	c0.4-0.2,0.8-0.4,1-0.9c0-0.3,0-0.5,0-0.8C311.4,71.6,311.4,71.6,311.4,71.5z"/>
<path class="st92" d="M311.2,72.7c1,0.2,2.1,0,3-0.6c0-0.1,0-0.3,0.1-0.6c0.2-0.8,0.5-1.6,0.8-2.3c0.2-1.2-0.4-2.3-1.5-2.9
	c-1-0.5-2.2-0.4-3.1,0.3c-0.4,0.4-0.7,0.9-0.9,1.4v1.2c-0.1,0.2-0.2,0.3-0.3,0.5c-0.2,0.3-0.4,0.3-0.3,0.4s0.2,0.2,0.7,0.2
	c0,0.3,0.1,0.5,0.1,0.7c0.1,0.6,0.1,0.6,0.1,0.7C310.1,72.4,310.9,72.6,311.2,72.7z"/>
<g>
	<defs>
		<path id="SVGID_75_" d="M311.2,72.7c1,0.2,2.1,0,3-0.6c0-0.1,0-0.3,0.1-0.6c0.2-0.8,0.5-1.6,0.8-2.3c0.2-1.2-0.4-2.3-1.5-2.9
			c-1-0.5-2.2-0.4-3.1,0.3c-0.4,0.4-0.7,0.9-0.9,1.4v1.2c-0.1,0.2-0.2,0.3-0.3,0.5c-0.2,0.3-0.4,0.3-0.3,0.4s0.2,0.2,0.7,0.2
			c0,0.3,0.1,0.5,0.1,0.7c0.1,0.6,0.1,0.6,0.1,0.7C310.1,72.4,310.9,72.6,311.2,72.7z"/>
	</defs>
	<clipPath id="SVGID_76_">
		<use xlink:href="#SVGID_75_"  style="overflow:visible;"/>
	</clipPath>
	<g class="st93">
		
			<linearGradient id="SVGID_77_" gradientUnits="userSpaceOnUse" x1="312.4745" y1="408.7177" x2="312.4745" y2="414.8073" gradientTransform="matrix(1 0 0 -1 0 480.3755)">
			<stop  offset="0" style="stop-color:#253858;stop-opacity:0.1"/>
			<stop  offset="0.72" style="stop-color:#253858"/>
		</linearGradient>
		<path class="st94" d="M309.8,67.7c0.2,0.3,0.9,0.3,1.3,0.2c0.7-0.2,0.9-0.6,1.3-0.5c0.2,0,0.4,0.2,0.5,0.3
			c0.1,0.3,0.1,0.6,0.1,0.8c0,0.1,0,0.3,0,0.4c0.1,0.2,0.2,0.1,0.3,0.3s-0.1,0.5,0,0.6s0.1,0.1,0.3,0.1l0.3-0.8
			c0.2,0,0.3,0.1,0.4,0.2s-0.1,0.4-0.4,1.1c0,0.1-0.1,0.2-0.1,0.3c0,0.4,0.4,1,0.7,1c0.5,0,1.1-1.5,1-2.8c0-1.1-0.4-2.1-1.3-2.8
			c-0.6-0.4-1.4-0.6-2.1-0.5c-0.6,0-1.2,0.2-1.6,0.5c-0.5,0.3-0.8,0.8-1,1.3c0,0.2,0,0.3,0,0.5c0-0.2,0.1-0.5,0.2-0.5
			S309.7,67.5,309.8,67.7z"/>
	</g>
</g>
<path class="st95" d="M297.3,79.8c0.1,0.2,0.5,1.1,1,1c0.3,0,0.5-0.4,0.5-0.7c0-0.3-0.2-0.7-0.5-0.8c-0.4-0.3-1-0.6-1.2-0.4
	S297.2,79.5,297.3,79.8z"/>
<path class="st39" d="M305.1,113l0.1-0.2c0.3-0.6,0.9-1,1.5-1.1l1-0.2c0.4-0.1,0.6-0.4,0.7-0.7l0.1-1.2l2-0.1l0.1,3L305.1,113z"/>
<g>
	<defs>
		<path id="SVGID_78_" d="M305.1,113l0.1-0.2c0.3-0.6,0.9-1,1.5-1.1l1-0.2c0.4-0.1,0.6-0.4,0.7-0.7l0.1-1.2l2-0.1l0.1,3L305.1,113z"
			/>
	</defs>
	<clipPath id="SVGID_79_">
		<use xlink:href="#SVGID_78_"  style="overflow:visible;"/>
	</clipPath>
	<g class="st96">
		<rect x="304.9" y="111.3" class="st97" width="2" height="2"/>
		<polygon class="st97" points="305.2,112.7 310.8,112.1 310.8,112.4 305.1,113 		"/>
	</g>
</g>
<circle class="st97" cx="309.7" cy="111.1" r="0.4"/>
<path class="st39" d="M313.2,112.2l0.1-0.2c0.3-0.6,0.9-1,1.5-1.1l1-0.2c0.2-0.1,0.3-0.3,0.4-0.5c0.1-0.2,0.1-0.5,0.1-0.7l-0.3-0.8
	l1.9-0.9l1.3,2.8l-3.5,1.5L313.2,112.2z"/>
<g>
	<defs>
		<path id="SVGID_80_" d="M313.2,112.2l0.1-0.2c0.3-0.6,0.9-1,1.5-1.1l1-0.2c0.2-0.1,0.3-0.3,0.4-0.5c0.1-0.2,0.1-0.5,0.1-0.7
			l-0.3-0.8l1.9-0.9l1.3,2.8l-3.5,1.5L313.2,112.2z"/>
	</defs>
	<clipPath id="SVGID_81_">
		<use xlink:href="#SVGID_80_"  style="overflow:visible;"/>
	</clipPath>
	<g class="st98">
		<rect x="313.1" y="110.5" class="st99" width="2" height="2"/>
		<polygon class="st99" points="313.4,111.9 315.7,111.7 319.1,110.2 319.2,110.5 315.7,111.9 313.2,112.2 		"/>
		<circle class="st99" cx="317.5" cy="109.1" r="0.4"/>
	</g>
</g>
<path class="st95" d="M301,74.8c0.1,0.9-1.8,1.5-2,1.6s-0.9,0.3-1.1,0c0,0,0-0.1-0.1-0.3c-0.2-0.5-0.2-0.5-0.2-0.7s0.2-0.3,0.3-0.7
	s0-0.4,0.1-0.6c0.2-0.4,0.8-0.4,1-0.4C299.7,73.6,301,74.1,301,74.8z"/>
<linearGradient id="SVGID_82_" gradientUnits="userSpaceOnUse" x1="308.5815" y1="382.1978" x2="319.07" y2="382.1978" gradientTransform="matrix(1 0 0 -1 0 480.3755)">
	<stop  offset="0" style="stop-color:#0052CC"/>
	<stop  offset="1" style="stop-color:#4C9AFF"/>
</linearGradient>
<path class="st100" d="M308.7,87.1c-0.1,1.5-0.1,2.9-0.1,4.4c0,0.9,0.1,1.8,0.2,2.6l0,0c0.3,2.8,1.1,5.6,2.4,8.1l4.6,7.1l3.3-0.6
	c-0.9-2.4-1.9-4.8-3.1-7.4c-0.7-1.6-1.5-3.1-2.3-4.6l0.9-9.8L308.7,87.1z"/>
<linearGradient id="SVGID_83_" gradientUnits="userSpaceOnUse" x1="306.357" y1="381.8027" x2="318.245" y2="381.8027" gradientTransform="matrix(1 0 0 -1 0 480.3755)">
	<stop  offset="0" style="stop-color:#4C9AFF"/>
	<stop  offset="1" style="stop-color:#0052CC"/>
</linearGradient>
<path class="st101" d="M316.5,91.6c-2,2.1-3.9,4.4-5.6,6.8c0.1,3.9,0.3,7.8,0.4,11.7l-3.7,0.1c-0.2-2-0.4-4-0.5-6
	c-0.2-2.6-0.5-5.1-0.8-7.6c0-0.3,0-0.7,0.2-1c0.8-1.6,1.8-3.2,2.8-4.8c1-1.4,2-2.7,3.1-4h5.7c0.1,0.9,0,1.7-0.3,2.6
	C317.6,90.3,317.2,91,316.5,91.6z"/>
<path class="st95" d="M303.4,76.1L303.4,76.1l1.6-0.6l4.1-1.3c1.1-0.6,2.5-0.4,3.4,0.6c0.3,0.4,0.4,0.9,0.4,1.3l0,0
	c-0.1,1-0.9,1.7-1.8,1.6c-0.1,0-0.1,0-0.2,0l-6.4,0.2C303.8,77.6,303.3,76.9,303.4,76.1z"/>
<path class="st95" d="M299.8,74l5.5,1.4c0.8,0,1,0.3,1.1,0.4c0.3,0.6-0.6,2-1.6,2.2c-0.2,0-0.4,0-0.5-0.1l-5-2.6L299.8,74z"/>
<path class="st102" d="M318.4,87.6l-10.2-0.1c0-1.9,0-3.4,0-4.5c0-2,0-2.8,0-4.5s0-3.1,0-4c0.5-0.2,1.1-0.5,1.7-0.8
	c0.4-0.2,0.8-0.4,1.2-0.6c0.2,0.5,0.5,0.8,1,1c1,0.3,2.1-0.3,2.5-1.2c1,0,1.9,0.2,2.8,0.7c0.5,0.2,0.9,0.5,1.3,0.9
	c0.4,1.8,0.5,3.7,0.4,5.6c-0.1,1.4-0.4,2.7-0.7,4C318.2,85.2,318.3,86.4,318.4,87.6z"/>
<path class="st102" d="M312.5,74.8c-0.9-0.9-2.3-1.2-3.4-0.6l-2,0.6c0.4,0.9,0.6,2,0.6,3l3.2-0.1c1,0.1,1.8-0.5,2-1.5
	c0-0.1,0-0.1,0-0.2C312.9,75.6,312.8,75.2,312.5,74.8z"/>
<path class="st71" d="M299.6,178.3h-1V77.2c0-0.9,0.2-1.8,0.7-2.6c0.8-1.3,2.2-2.1,3.7-2.3c1.4-0.1,2.7,0.4,3.8,1.2
	c3.4,2.7,2.3,9.2,0.4,13c-0.8,1.5-1.8,2.8-3,4l-0.7-0.7c1.1-1.1,2.1-2.4,2.8-3.8c1.7-3.4,2.8-9.4-0.1-11.7c-0.9-0.7-2-1-3.1-1
	c-1.2,0.1-2.3,0.8-3,1.8c-0.4,0.6-0.6,1.3-0.6,2.1L299.6,178.3z"/>
<path class="st103" d="M300,81.1l-0.3-1.8l8-1.4c1-0.2,2,0.4,2.2,1.4l0,0c0.1,0.9-0.5,1.7-1.4,1.8c-0.1,0-0.1,0-0.2,0L300,81.1z"/>
<path class="st103" d="M306.7,80.4c-0.1-0.4,0-0.8,0.2-1.2c0.7-1.3,1.7-1.6,4.2-3.1c1.3-0.9,2.8-1.6,4.2-2.2
	c0.2-0.1,0.5-0.1,0.7-0.2c0.4,0,0.8,0,1.2,0.2c0.4,0.1,0.8,0.4,1.1,0.8c0.5,0.8-0.2,2.1-0.9,2.8c-0.5,0.4-1,0.7-1.6,0.9
	c-1.5,0.8-3,1.4-4.6,2c-0.7,0.2-1.4,0.4-2.2,0.5C307.9,81.2,306.9,81,306.7,80.4z"/>
<path class="st103" d="M300.4,79.2c0.3,0.9,0.1,1.7-0.3,1.9c-0.4,0.1-0.7,0.1-1-0.2c-0.4-0.2-0.8-0.6-0.9-1.1
	c-0.3-0.1-1.1-0.4-1.1-0.8c0-0.2,0.1-0.2,0.3-0.6c0.1-0.2,0.1-0.3,0.2-0.4s0.2,0,0.4-0.1s0.1-0.2,0.2-0.2c0.2-0.2,1,0.3,1.4,0.6
	C299.9,78.5,300.2,78.8,300.4,79.2z"/>
<path class="st95" d="M298.3,76.5c0.2,0.1,0.5,0,0.6-0.2c0-0.1,0-0.2,0-0.2c0.1-0.1,0.2-0.2,0.3-0.3c0-0.2,0-0.4-0.2-0.5
	c0.1,0,0.4-0.2,0.3-0.4s-0.5-0.4-0.8-0.3C297.9,74.8,298.2,76.4,298.3,76.5z"/>
<linearGradient id="SVGID_84_" gradientUnits="userSpaceOnUse" x1="312.1" y1="403.7577" x2="318.4611" y2="403.7577" gradientTransform="matrix(1 0 0 -1 0 480.3755)">
	<stop  offset="0" style="stop-color:#4C9AFF"/>
	<stop  offset="1" style="stop-color:#4C9AFF"/>
</linearGradient>
<path class="st104" d="M318.3,74.8c-0.3-0.4-0.6-0.6-1.1-0.8c-0.4-0.1-0.8-0.2-1.2-0.2c-0.2,0-0.5,0.1-0.7,0.2
	c-1.1,0.4-2.2,1-3.2,1.6c1,1,1.7,2.4,1.9,3.8l1.9-0.8c0.6-0.2,1.1-0.5,1.6-0.9C318.1,76.9,318.8,75.6,318.3,74.8z"/>
<path class="st92" d="M270.4,203.9l0.2,0.4c0.1,0.1,0.1,0.1,0.2,0.2l0.6,0.1c0.1,0,0.2,0,0.3-0.1l0.5-0.5h-0.5c0-0.1,0-0.2,0-0.2
	c0,0-0.1-0.1-0.1-0.1s-0.1,0.1-0.1,0.1s0.1-0.2,0-0.3s-0.1,0-0.1,0s-0.1,0.2-0.1,0.2c0-0.1,0-0.2,0-0.3c0,0-0.1,0-0.1,0
	c-0.1,0.1-0.3,0.3-0.4,0.4L270.4,203.9z"/>
<path class="st92" d="M280.5,204l0.2,0.4c0.1,0.1,0.2,0.1,0.3,0.1h0.6c0.1,0,0.2,0,0.3-0.1l0.4-0.4h-0.5c0-0.1,0-0.2,0-0.3
	c0,0-0.1-0.1-0.1-0.1c-0.1,0-0.1,0.1-0.1,0.2c0,0,0.1-0.2,0-0.3s-0.1,0-0.1,0s-0.1,0.3-0.1,0.3c0-0.1,0-0.2,0-0.3c0,0-0.1,0-0.1,0
	c-0.1,0.1-0.3,0.3-0.4,0.4L280.5,204z"/>
<path class="st92" d="M353.9,249.9c0.2,0,0.5-0.3,0.5-0.5c0.1-0.2,0.1-0.5,0-0.8c-0.1-0.3-0.4-0.3-0.6-0.7s-0.3-0.7-0.4-0.7
	s-0.2,0.2-0.2,0.5c0,0.4,0.3,0.5,0.3,0.9s-0.1,0.4,0,0.8C353.7,249.6,353.8,249.9,353.9,249.9z"/>
<path class="st92" d="M354.3,248.5c0,0-1.3-0.5-1.5-0.8s-0.1-0.6-0.3-0.6s-0.1,0.5-0.2,0.6s-0.2,0-0.2,0.2c0,0.2,0,0.4,0,0.5
	c0.2,0.4,0.5,0.8,0.8,1.1c0.4,0.3,0.8,0.4,1.2,0.5c0.3,0,0.2-1.2,0.2-1.2L354.3,248.5z"/>
<path class="st105" d="M370.2,256.1c-2.1-0.6-4.3-1-6.5-1.2l-3.6-0.4c-1.1-1-2.3-2.1-3.4-3.4c-0.7-0.7-1.3-1.4-1.9-2.1l-1.2,1.1
	c0.7,1.2,1.4,2.3,2.2,3.3c1,1.2,2.1,2.4,3.3,3.5c0.9,0.4,1.8,0.9,2.8,1.3s2.1,0.9,3.1,1.2l0,0C367.4,259.4,369.7,258.2,370.2,256.1z
	"/>
<path class="st106" d="M364.9,254.2c-0.1,0.3,0.2,0.5,0.2,1.2c0,0.4-0.1,0.8-0.2,1.1c1.8,0.7,3.3,0.7,3.7,0.1
	c0.2-0.4,0.2-0.8,0.1-1.2c0-0.5-0.1-1-0.3-1.4C367.7,253,365.2,253.4,364.9,254.2z"/>
<path class="st76" d="M370.1,266.2c-0.1-0.2-0.2-0.4-0.3-0.6c-0.1-0.2-0.3-0.5-0.4-0.7c-0.2,0-0.5,0.1-0.7,0.1c-0.3,0-0.5,0-0.6,0
	c-0.6,0-1.9,0.1-5.2,0.1c-0.2,0.2-0.4,0.4-0.6,0.7c-0.5,0.8-0.9,1.6-1,2.5c-0.7,3.3-1.2,6.6-1.4,10l-0.1,3.2
	c-0.1,2.6-0.1,5.1-0.2,7.7c0,0.2,0.1,0.3,0.2,0.4c0.4,0.2,0.9,0.3,1.3,0.2c0.4-0.1,0.8-0.2,1.1-0.4c0.5-0.9,0.9-2,1.2-3
	c0.3-1,0.4-2.1,0.4-3.1c0-1-0.1-2-0.4-3c0.3-0.9,0.6-1.8,1-2.7c0.7-1.5,1.5-2.9,2.4-4.3c0.2,2.8,0.4,5.6,0.5,8.5
	c0.1,2.7,0.2,5.3,0.2,7.8l2.2,0.9c0.7-2.5,1-5.2,0.8-7.8c0-0.8-0.1-1.6-0.3-2.4c0.1-1,0.1-2,0.3-3.1c0.1-0.9,0.2-1.7,0.3-2.5
	c0.2-2.2,0.1-4.5-0.3-6.6C370.7,267.6,370.3,266.6,370.1,266.2z"/>
<path class="st63" d="M369.4,289.4c0.4,0,0.9,0,1.3-0.1c-0.1,1-0.3,1.9-0.4,2.5c-0.2,1.1-0.4,2.2-0.4,3.4c0,0.4,0,0.7,0,0.9h-1.3
	l-0.3-0.4l-0.3,0.5h-2c-0.7,0-1.3,0-2-0.1c0-0.2-0.1-0.4-0.1-0.5l1.8-0.5c0.4-0.3,0.7-0.6,0.9-1c0.6-0.8,0.9-1.8,1-2.8
	c0.1-0.6,0.1-1.3,0.1-1.9C368.3,289.4,368.8,289.4,369.4,289.4z"/>
<path class="st92" d="M348.2,252.2c0.3,0.1,0.6-0.3,0.7-0.6c0.1-0.3,0.1-0.7,0-1c-0.2-0.4-0.4-0.4-0.8-0.9s-0.4-0.9-0.5-0.9
	s-0.2,0.3-0.2,0.6c0,0.5,0.3,0.6,0.4,1.2s-0.1,0.5,0,1C347.9,251.8,348,252.2,348.2,252.2z"/>
<path class="st92" d="M348.7,250.5c0,0-1.6-0.6-1.8-1s-0.2-0.7-0.4-0.7s-0.1,0.7-0.2,0.7s-0.2,0-0.2,0.2c0,0.2,0,0.5,0,0.7
	c0.2,0.5,0.6,1,1,1.4c0.4,0.3,0.9,0.6,1.5,0.6c0.4,0,0.3-1.6,0.3-1.6L348.7,250.5z"/>
<path class="st55" d="M370.9,257.9c0.2-0.8-0.2-1.7-0.9-2l-0.5-0.2c-1.6-0.6-3.5-1.1-9.8-0.5l-3.8,0.4c-1.4-0.8-2.8-1.7-4.3-2.8
	c-0.8-0.6-1.6-1.2-2.4-1.8l-1,1.4c0.9,1.1,1.9,2,3,2.9c1.3,1.1,2.7,2,4.1,2.9c1,0.2,2,0.5,3.2,0.7s2.4,0.4,3.5,0.6
	c-0.2,0.4-0.3,0.8-0.3,1.2c0,0.5,0.2,1,0.5,1.5c0.4,0.6,0.6,1.7-0.1,3.8c1.4,0.3,2.8,0.4,4.2,0.3c1.3-0.1,2.6-0.3,3.8-0.6
	c-0.1-0.8-0.1-1.7-0.1-2.5c0-1,0.1-2.1,0.3-3.1C370.5,259.4,370.7,258.7,370.9,257.9z"/>
<path class="st106" d="M365.5,249c-0.5,0.6-0.9,1.2-1.2,1.9c0,0.1,0,0.1-0.2,0.2s-0.4,0.1-0.4,0.3s0.3,0.3,0.3,0.4l-0.2,1.8l0.7,0.3
	l2.5,1c0-0.1-1-2.6-0.9-2.8s0-0.4-0.1-0.5c-0.2-0.6-0.4-1.1-0.5-1.7c-0.1-0.2-0.1-0.4,0-0.5C365.5,249.2,365.5,249,365.5,249z"/>
<path class="st107" d="M369.7,253.7c-0.5,0.6-1.1,0.9-1.9,0.9c-1,0-1.8-0.7-2-1.6c0.1-0.4,0.1-0.8,0.1-1.1c0-0.3-0.1-0.7-0.3-0.7
	s-0.3,0.4-0.4,0.4s-0.1-0.5-0.1-0.7c0-1.1-0.2-1.2-0.1-1.6c0.2-0.6,0.7-1.1,1.2-1.4c0.8-0.3,1.8-0.3,2.6,0.2c1.4,0.8,2.1,2.4,1.8,4
	C370.5,252.6,370.2,253.3,369.7,253.7z"/>
<path class="st107" d="M372,251.2c-0.3,0.4-0.9,0.7-1.4,0.7c-0.7,0-1.4-0.5-1.5-1.2c0.1-0.3,0.1-0.6,0.1-0.9c0-0.2-0.1-0.5-0.2-0.5
	s-0.2,0.3-0.3,0.3s-0.1-0.4-0.1-0.5c0-0.9-0.2-0.9-0.1-1.2c0.2-0.4,0.5-0.8,0.9-1c0.6-0.2,1.3-0.2,1.9,0.1c1,0.6,1.6,1.8,1.4,3
	C372.6,250.4,372.3,250.8,372,251.2z"/>
<path class="st63" d="M361,289.4c0.4,0,0.9,0,1.3-0.1c-0.1,1-0.3,1.9-0.4,2.5c-0.2,1.1-0.4,2.2-0.4,3.4c0,0.4,0,0.7,0,0.9h-1.3
	l-0.3-0.4l-0.3,0.5h-2c-0.7,0-1.4,0-2-0.1l-0.1-0.5l1.8-0.5c0.4-0.3,0.7-0.6,0.9-1c0.6-0.9,0.9-1.8,1-2.8c0.1-0.6,0.1-1.3,0.1-1.9
	C359.9,289.4,360.4,289.4,361,289.4z"/>
<path class="st18" d="M332.4,190.9c-8.5,0-15.4-6.9-15.4-15.4c0-8.5,6.9-15.4,15.4-15.3c8.5,0,15.3,6.9,15.3,15.4c0,0,0,0,0,0
	C347.7,184.1,340.9,190.9,332.4,190.9z M332.4,162.9c-7,0-12.7,5.7-12.7,12.7c0,7,5.7,12.7,12.7,12.7c7,0,12.7-5.7,12.7-12.7l0,0
	C345.1,168.6,339.4,162.9,332.4,162.9z"/>
<linearGradient id="SVGID_85_" gradientUnits="userSpaceOnUse" x1="323.69" y1="304.7777" x2="341.09" y2="304.7777" gradientTransform="matrix(1 0 0 -1 0 480.3755)">
	<stop  offset="0" style="stop-color:#008DA6"/>
	<stop  offset="0.33" style="stop-color:#00A0BD"/>
	<stop  offset="0.74" style="stop-color:#00B2D1"/>
	<stop  offset="1" style="stop-color:#00B8D9"/>
</linearGradient>
<circle class="st108" cx="332.4" cy="175.6" r="8.7"/>
</svg>
